<?xml version="1.0" standalone="no"?>
<!DOCTYPE svg PUBLIC "-//W3C//DTD SVG 1.1//EN" "http://www.w3.org/Graphics/SVG/1.1/DTD/svg11.dtd">
<svg width="220" height="220" viewBox="-110 -110 220 220" xmlns="http://www.w3.org/2000/svg" version="1.1">
<title>OpenSCAD Model</title>
<path d="
M -97.4995,107.95 L -82.5005,107.95 L -82.5005,109.95 L -77.4995,109.95 L -77.4995,107.95 L -62.5005,107.95
 L -62.5005,109.95 L -57.4995,109.95 L -57.4995,107.95 L -42.5005,107.95 L -42.5005,109.95 L -37.4995,109.95
 L -37.4995,107.95 L -22.5005,107.95 L -22.5005,109.95 L -17.4995,109.95 L -17.4995,107.95 L -2.50049,107.95
 L -2.50049,109.95 L 2.50049,109.95 L 2.50049,107.95 L 17.4995,107.95 L 17.4995,109.95 L 22.5005,109.95
 L 22.5005,107.95 L 37.4995,107.95 L 37.4995,109.95 L 42.5005,109.95 L 42.5005,107.95 L 57.4995,107.95
 L 57.4995,109.95 L 62.5005,109.95 L 62.5005,107.95 L 77.4995,107.95 L 77.4995,109.95 L 82.5005,109.95
 L 82.5005,107.95 L 97.4995,107.95 L 97.4995,109.95 L 102.5,109.95 L 102.5,107.95 L 107.95,107.95
 L 107.95,102.5 L 109.95,102.5 L 109.95,97.4995 L 107.95,97.4995 L 107.95,82.5005 L 109.95,82.5005
 L 109.95,77.4995 L 107.95,77.4995 L 107.95,62.5005 L 109.95,62.5005 L 109.95,57.4995 L 107.95,57.4995
 L 107.95,42.5005 L 109.95,42.5005 L 109.95,37.4995 L 107.95,37.4995 L 107.95,22.5005 L 109.95,22.5005
 L 109.95,17.4995 L 107.95,17.4995 L 107.95,2.50049 L 109.95,2.50049 L 109.95,-2.50049 L 107.95,-2.50049
 L 107.95,-17.4995 L 109.95,-17.4995 L 109.95,-22.5005 L 107.95,-22.5005 L 107.95,-37.4995 L 109.95,-37.4995
 L 109.95,-42.5005 L 107.95,-42.5005 L 107.95,-57.4995 L 109.95,-57.4995 L 109.95,-62.5005 L 107.95,-62.5005
 L 107.95,-77.4995 L 109.95,-77.4995 L 109.95,-82.5005 L 107.95,-82.5005 L 107.95,-97.4995 L 109.95,-97.4995
 L 109.95,-102.5 L 107.95,-102.5 L 107.95,-107.95 L 102.5,-107.95 L 102.5,-109.95 L 97.4995,-109.95
 L 97.4995,-107.95 L 82.5005,-107.95 L 82.5005,-109.95 L 77.4995,-109.95 L 77.4995,-107.95 L 62.5005,-107.95
 L 62.5005,-109.95 L 57.4995,-109.95 L 57.4995,-107.95 L 42.5005,-107.95 L 42.5005,-109.95 L 37.4995,-109.95
 L 37.4995,-107.95 L 22.5005,-107.95 L 22.5005,-109.95 L 17.4995,-109.95 L 17.4995,-107.95 L 8.41374,-107.95
 L 8.41374,-56.9743 L 11.9404,-56.0688 L 16.4521,-54.2825 L 20.7043,-51.9448 L 24.6301,-49.0926 L 28.1673,-45.7709
 L 31.2604,-42.032 L 32.1438,-40.64 L 40.64,-40.64 L 40.64,40.64 L -40.64,40.64 L -40.64,-40.64
 L -32.1438,-40.64 L -31.2604,-42.032 L -28.1673,-45.7709 L -24.6301,-49.0926 L -20.7043,-51.9448 L -16.4521,-54.2825
 L -11.9404,-56.0688 L -8.41374,-56.9743 L -8.41374,-107.95 L -17.4995,-107.95 L -17.4995,-109.95 L -22.5005,-109.95
 L -22.5005,-107.95 L -37.4995,-107.95 L -37.4995,-109.95 L -42.5005,-109.95 L -42.5005,-107.95 L -57.4995,-107.95
 L -57.4995,-109.95 L -62.5005,-109.95 L -62.5005,-107.95 L -77.4995,-107.95 L -77.4995,-109.95 L -82.5005,-109.95
 L -82.5005,-107.95 L -97.4995,-107.95 L -97.4995,-109.95 L -102.5,-109.95 L -102.5,-107.95 L -107.95,-107.95
 L -107.95,-102.5 L -109.95,-102.5 L -109.95,-97.4995 L -107.95,-97.4995 L -107.95,-82.5005 L -109.95,-82.5005
 L -109.95,-77.4995 L -107.95,-77.4995 L -107.95,-62.5005 L -109.95,-62.5005 L -109.95,-57.4995 L -107.95,-57.4995
 L -107.95,-42.5005 L -109.95,-42.5005 L -109.95,-37.4995 L -107.95,-37.4995 L -107.95,-22.5005 L -109.95,-22.5005
 L -109.95,-17.4995 L -107.95,-17.4995 L -107.95,-2.50049 L -109.95,-2.50049 L -109.95,2.50049 L -107.95,2.50049
 L -107.95,17.4995 L -109.95,17.4995 L -109.95,22.5005 L -107.95,22.5005 L -107.95,37.4995 L -109.95,37.4995
 L -109.95,42.5005 L -107.95,42.5005 L -107.95,57.4995 L -109.95,57.4995 L -109.95,62.5005 L -107.95,62.5005
 L -107.95,77.4995 L -109.95,77.4995 L -109.95,82.5005 L -107.95,82.5005 L -107.95,97.4995 L -109.95,97.4995
 L -109.95,102.5 L -107.95,102.5 L -107.95,107.95 L -102.5,107.95 L -102.5,109.95 L -97.4995,109.95
 z
M 38.638,-97.9495 L 38.638,-102.95 L 40.64,-102.95 L 40.64,-97.9495 z
M -40.64,-97.9495 L -40.64,-102.95 L -38.638,-102.95 L -38.638,-97.9495 z
M 38.638,-87.9495 L 38.638,-92.9505 L 40.64,-92.9505 L 40.64,-87.9495 z
M -40.64,-87.9495 L -40.64,-92.9505 L -38.638,-92.9505 L -38.638,-87.9495 z
M 38.638,-77.9495 L 38.638,-82.9505 L 40.64,-82.9505 L 40.64,-77.9495 z
M -40.64,-77.9495 L -40.64,-82.9505 L -38.638,-82.9505 L -38.638,-77.9495 z
M 38.638,-67.9495 L 38.638,-72.9505 L 40.64,-72.9505 L 40.64,-67.9495 z
M -40.64,-67.9495 L -40.64,-72.9505 L -38.638,-72.9505 L -38.638,-67.9495 z
M 38.638,-57.9495 L 38.638,-62.9505 L 40.64,-62.9505 L 40.64,-57.9495 z
M -40.64,-57.9495 L -40.64,-62.9505 L -38.638,-62.9505 L -38.638,-57.9495 z
M 38.638,-47.9495 L 38.638,-52.9505 L 40.64,-52.9505 L 40.64,-47.9495 z
M -40.64,-47.9495 L -40.64,-52.9505 L -38.638,-52.9505 L -38.638,-47.9495 z
M 62.8181,-13.9041 L 62.5565,-13.9372 L 62.3011,-14.0028 L 62.0559,-14.0999 L 61.8248,-14.2269 L 61.6114,-14.3819
 L 61.4192,-14.5625 L 61.2511,-14.7657 L 61.1098,-14.9883 L 60.9975,-15.2269 L 60.916,-15.4778 L 60.8666,-15.7368
 L 60.85,-16 L 60.85,-38.638 L 57.9495,-38.638 L 57.9495,-40.64 L 60.85,-40.64 L 60.85,-46
 L 60.8666,-46.2632 L 60.916,-46.5222 L 60.9975,-46.7731 L 61.1098,-47.0117 L 61.2511,-47.2343 L 61.4192,-47.4375
 L 61.6114,-47.6181 L 61.8248,-47.7731 L 62.0559,-47.9001 L 62.3011,-47.9972 L 62.5565,-48.0628 L 62.8181,-48.0959
 L 63.0819,-48.0959 L 63.3435,-48.0628 L 63.5989,-47.9972 L 63.8441,-47.9001 L 64.0752,-47.7731 L 64.2886,-47.6181
 L 64.4808,-47.4375 L 64.6489,-47.2343 L 64.7903,-47.0117 L 64.9025,-46.7731 L 64.984,-46.5222 L 65.0334,-46.2632
 L 65.05,-46 L 65.05,-16 L 65.0334,-15.7368 L 64.984,-15.4778 L 64.9025,-15.2269 L 64.7903,-14.9883
 L 64.6489,-14.7657 L 64.4808,-14.5625 L 64.2886,-14.3819 L 64.0752,-14.2269 L 63.8441,-14.0999 L 63.5989,-14.0028
 L 63.3435,-13.9372 L 63.0819,-13.9041 z
M 92.8181,-13.9041 L 92.5565,-13.9372 L 92.3011,-14.0028 L 92.0558,-14.0999 L 91.8248,-14.2269 L 91.6114,-14.3819
 L 91.4192,-14.5625 L 91.2511,-14.7657 L 91.1097,-14.9883 L 90.9975,-15.2269 L 90.916,-15.4778 L 90.8665,-15.7368
 L 90.85,-16 L 90.85,-38.638 L 87.9495,-38.638 L 87.9495,-40.64 L 90.85,-40.64 L 90.85,-46
 L 90.8665,-46.2632 L 90.916,-46.5222 L 90.9975,-46.7731 L 91.1097,-47.0117 L 91.2511,-47.2343 L 91.4192,-47.4375
 L 91.6114,-47.6181 L 91.8248,-47.7731 L 92.0558,-47.9001 L 92.3011,-47.9972 L 92.5565,-48.0628 L 92.8181,-48.0959
 L 93.0818,-48.0959 L 93.3435,-48.0628 L 93.5989,-47.9972 L 93.8441,-47.9001 L 94.0752,-47.7731 L 94.2886,-47.6181
 L 94.4808,-47.4375 L 94.6489,-47.2343 L 94.7902,-47.0117 L 94.9025,-46.7731 L 94.984,-46.5222 L 95.0334,-46.2632
 L 95.05,-46 L 95.05,-16 L 95.0334,-15.7368 L 94.984,-15.4778 L 94.9025,-15.2269 L 94.7902,-14.9883
 L 94.6489,-14.7657 L 94.4808,-14.5625 L 94.2886,-14.3819 L 94.0752,-14.2269 L 93.8441,-14.0999 L 93.5989,-14.0028
 L 93.3435,-13.9372 L 93.0818,-13.9041 z
M -93.0818,-13.9041 L -93.3435,-13.9372 L -93.5989,-14.0028 L -93.8441,-14.0999 L -94.0752,-14.2269 L -94.2886,-14.3819
 L -94.4808,-14.5625 L -94.6489,-14.7657 L -94.7902,-14.9883 L -94.9025,-15.2269 L -94.984,-15.4778 L -95.0334,-15.7368
 L -95.05,-16 L -95.05,-46 L -95.0334,-46.2632 L -94.984,-46.5222 L -94.9025,-46.7731 L -94.7902,-47.0117
 L -94.6489,-47.2343 L -94.4808,-47.4375 L -94.2886,-47.6181 L -94.0752,-47.7731 L -93.8441,-47.9001 L -93.5989,-47.9972
 L -93.3435,-48.0628 L -93.0818,-48.0959 L -92.8181,-48.0959 L -92.5565,-48.0628 L -92.3011,-47.9972 L -92.0558,-47.9001
 L -91.8248,-47.7731 L -91.6114,-47.6181 L -91.4192,-47.4375 L -91.2511,-47.2343 L -91.1097,-47.0117 L -90.9975,-46.7731
 L -90.916,-46.5222 L -90.8665,-46.2632 L -90.85,-46 L -90.85,-40.64 L -87.9495,-40.64 L -87.9495,-38.638
 L -90.85,-38.638 L -90.85,-16 L -90.8665,-15.7368 L -90.916,-15.4778 L -90.9975,-15.2269 L -91.1097,-14.9883
 L -91.2511,-14.7657 L -91.4192,-14.5625 L -91.6114,-14.3819 L -91.8248,-14.2269 L -92.0558,-14.0999 L -92.3011,-14.0028
 L -92.5565,-13.9372 L -92.8181,-13.9041 z
M -63.0819,-13.9041 L -63.3435,-13.9372 L -63.5989,-14.0028 L -63.8441,-14.0999 L -64.0752,-14.2269 L -64.2886,-14.3819
 L -64.4808,-14.5625 L -64.6489,-14.7657 L -64.7903,-14.9883 L -64.9025,-15.2269 L -64.984,-15.4778 L -65.0334,-15.7368
 L -65.05,-16 L -65.05,-46 L -65.0334,-46.2632 L -64.984,-46.5222 L -64.9025,-46.7731 L -64.7903,-47.0117
 L -64.6489,-47.2343 L -64.4808,-47.4375 L -64.2886,-47.6181 L -64.0752,-47.7731 L -63.8441,-47.9001 L -63.5989,-47.9972
 L -63.3435,-48.0628 L -63.0819,-48.0959 L -62.8181,-48.0959 L -62.5565,-48.0628 L -62.3011,-47.9972 L -62.0559,-47.9001
 L -61.8248,-47.7731 L -61.6114,-47.6181 L -61.4192,-47.4375 L -61.2511,-47.2343 L -61.1098,-47.0117 L -60.9975,-46.7731
 L -60.916,-46.5222 L -60.8666,-46.2632 L -60.85,-46 L -60.85,-40.64 L -57.9495,-40.64 L -57.9495,-38.638
 L -60.85,-38.638 L -60.85,-16 L -60.8666,-15.7368 L -60.916,-15.4778 L -60.9975,-15.2269 L -61.1098,-14.9883
 L -61.2511,-14.7657 L -61.4192,-14.5625 L -61.6114,-14.3819 L -61.8248,-14.2269 L -62.0559,-14.0999 L -62.3011,-14.0028
 L -62.5565,-13.9372 L -62.8181,-13.9041 z
M 67.9495,-38.638 L 67.9495,-40.64 L 72.9505,-40.64 L 72.9505,-38.638 z
M 77.9495,-38.638 L 77.9495,-40.64 L 82.9505,-40.64 L 82.9505,-38.638 z
M -72.9505,-38.638 L -72.9505,-40.64 L -67.9495,-40.64 L -67.9495,-38.638 z
M -102.95,-38.638 L -102.95,-40.64 L -97.9495,-40.64 L -97.9495,-38.638 z
M 47.9495,-38.638 L 47.9495,-40.64 L 52.9505,-40.64 L 52.9505,-38.638 z
M -52.9505,-38.638 L -52.9505,-40.64 L -47.9495,-40.64 L -47.9495,-38.638 z
M 97.9495,-38.638 L 97.9495,-40.64 L 102.95,-40.64 L 102.95,-38.638 z
M -82.9505,-38.638 L -82.9505,-40.64 L -77.9495,-40.64 L -77.9495,-38.638 z
M -74.6937,6.33746 L -75.4849,6.23752 L -76.2572,6.0392 L -76.9987,5.74565 L -77.6975,5.36148 L -78.3426,4.89275
 L -78.924,4.34686 L -79.4323,3.73242 L -79.8595,3.05913 L -80.1991,2.33759 L -80.4455,1.57918 L -80.5949,0.795853
 L -80.645,-0 L -80.5949,-0.795853 L -80.4455,-1.57918 L -80.1991,-2.33759 L -79.8595,-3.05913 L -79.4323,-3.73242
 L -78.924,-4.34686 L -78.3426,-4.89275 L -77.6975,-5.36148 L -76.9987,-5.74565 L -76.2572,-6.0392 L -75.4849,-6.23752
 L -74.6937,-6.33746 L -73.8963,-6.33746 L -73.1051,-6.23752 L -72.3327,-6.0392 L -71.5913,-5.74565 L -70.8925,-5.36148
 L -70.2473,-4.89275 L -69.666,-4.34686 L -69.1577,-3.73242 L -68.7304,-3.05913 L -68.3909,-2.33759 L -68.1445,-1.57918
 L -67.9951,-0.795853 L -67.945,-0 L -67.9951,0.795853 L -68.1445,1.57918 L -68.3909,2.33759 L -68.7304,3.05913
 L -69.1577,3.73242 L -69.666,4.34686 L -70.2473,4.89275 L -70.8925,5.36148 L -71.5913,5.74565 L -72.3327,6.0392
 L -73.1051,6.23752 L -73.8963,6.33746 z
M 73.8963,6.33746 L 73.1051,6.23752 L 72.3327,6.0392 L 71.5913,5.74565 L 70.8925,5.36148 L 70.2473,4.89275
 L 69.666,4.34686 L 69.1577,3.73242 L 68.7304,3.05913 L 68.3909,2.33759 L 68.1445,1.57918 L 67.9951,0.795853
 L 67.945,-0 L 67.9951,-0.795853 L 68.1445,-1.57918 L 68.3909,-2.33759 L 68.7304,-3.05913 L 69.1577,-3.73242
 L 69.666,-4.34686 L 70.2473,-4.89275 L 70.8925,-5.36148 L 71.5913,-5.74565 L 72.3327,-6.0392 L 73.1051,-6.23752
 L 73.8963,-6.33746 L 74.6937,-6.33746 L 75.4849,-6.23752 L 76.2572,-6.0392 L 76.9987,-5.74565 L 77.6975,-5.36148
 L 78.3426,-4.89275 L 78.924,-4.34686 L 79.4323,-3.73242 L 79.8595,-3.05913 L 80.1991,-2.33759 L 80.4455,-1.57918
 L 80.5949,-0.795853 L 80.645,-0 L 80.5949,0.795853 L 80.4455,1.57918 L 80.1991,2.33759 L 79.8595,3.05913
 L 79.4323,3.73242 L 78.924,4.34686 L 78.3426,4.89275 L 77.6975,5.36148 L 76.9987,5.74565 L 76.2572,6.0392
 L 75.4849,6.23752 L 74.6937,6.33746 z
M -63.0819,46.5959 L -63.3435,46.5628 L -63.5989,46.4972 L -63.8441,46.4001 L -64.0752,46.2731 L -64.2886,46.1181
 L -64.4808,45.9375 L -64.6489,45.7343 L -64.7903,45.5117 L -64.9025,45.2731 L -64.984,45.0222 L -65.0334,44.7632
 L -65.05,44.5 L -65.05,14.5 L -65.0334,14.2368 L -64.984,13.9778 L -64.9025,13.7269 L -64.7903,13.4883
 L -64.6489,13.2657 L -64.4808,13.0625 L -64.2886,12.8819 L -64.0752,12.7269 L -63.8441,12.5999 L -63.5989,12.5028
 L -63.3435,12.4372 L -63.0819,12.4041 L -62.8181,12.4041 L -62.5565,12.4372 L -62.3011,12.5028 L -62.0559,12.5999
 L -61.8248,12.7269 L -61.6114,12.8819 L -61.4192,13.0625 L -61.2511,13.2657 L -61.1098,13.4883 L -60.9975,13.7269
 L -60.916,13.9778 L -60.8666,14.2368 L -60.85,14.5 L -60.85,38.638 L -57.9495,38.638 L -57.9495,40.64
 L -60.85,40.64 L -60.85,44.5 L -60.8666,44.7632 L -60.916,45.0222 L -60.9975,45.2731 L -61.1098,45.5117
 L -61.2511,45.7343 L -61.4192,45.9375 L -61.6114,46.1181 L -61.8248,46.2731 L -62.0559,46.4001 L -62.3011,46.4972
 L -62.5565,46.5628 L -62.8181,46.5959 z
M -93.0818,46.5959 L -93.3435,46.5628 L -93.5989,46.4972 L -93.8441,46.4001 L -94.0752,46.2731 L -94.2886,46.1181
 L -94.4808,45.9375 L -94.6489,45.7343 L -94.7902,45.5117 L -94.9025,45.2731 L -94.984,45.0222 L -95.0334,44.7632
 L -95.05,44.5 L -95.05,14.5 L -95.0334,14.2368 L -94.984,13.9778 L -94.9025,13.7269 L -94.7902,13.4883
 L -94.6489,13.2657 L -94.4808,13.0625 L -94.2886,12.8819 L -94.0752,12.7269 L -93.8441,12.5999 L -93.5989,12.5028
 L -93.3435,12.4372 L -93.0818,12.4041 L -92.8181,12.4041 L -92.5565,12.4372 L -92.3011,12.5028 L -92.0558,12.5999
 L -91.8248,12.7269 L -91.6114,12.8819 L -91.4192,13.0625 L -91.2511,13.2657 L -91.1097,13.4883 L -90.9975,13.7269
 L -90.916,13.9778 L -90.8665,14.2368 L -90.85,14.5 L -90.85,38.638 L -87.9495,38.638 L -87.9495,40.64
 L -90.85,40.64 L -90.85,44.5 L -90.8665,44.7632 L -90.916,45.0222 L -90.9975,45.2731 L -91.1097,45.5117
 L -91.2511,45.7343 L -91.4192,45.9375 L -91.6114,46.1181 L -91.8248,46.2731 L -92.0558,46.4001 L -92.3011,46.4972
 L -92.5565,46.5628 L -92.8181,46.5959 z
M 92.8181,46.5959 L 92.5565,46.5628 L 92.3011,46.4972 L 92.0558,46.4001 L 91.8248,46.2731 L 91.6114,46.1181
 L 91.4192,45.9375 L 91.2511,45.7343 L 91.1097,45.5117 L 90.9975,45.2731 L 90.916,45.0222 L 90.8665,44.7632
 L 90.85,44.5 L 90.85,40.64 L 87.9495,40.64 L 87.9495,38.638 L 90.85,38.638 L 90.85,14.5
 L 90.8665,14.2368 L 90.916,13.9778 L 90.9975,13.7269 L 91.1097,13.4883 L 91.2511,13.2657 L 91.4192,13.0625
 L 91.6114,12.8819 L 91.8248,12.7269 L 92.0558,12.5999 L 92.3011,12.5028 L 92.5565,12.4372 L 92.8181,12.4041
 L 93.0818,12.4041 L 93.3435,12.4372 L 93.5989,12.5028 L 93.8441,12.5999 L 94.0752,12.7269 L 94.2886,12.8819
 L 94.4808,13.0625 L 94.6489,13.2657 L 94.7902,13.4883 L 94.9025,13.7269 L 94.984,13.9778 L 95.0334,14.2368
 L 95.05,14.5 L 95.05,44.5 L 95.0334,44.7632 L 94.984,45.0222 L 94.9025,45.2731 L 94.7902,45.5117
 L 94.6489,45.7343 L 94.4808,45.9375 L 94.2886,46.1181 L 94.0752,46.2731 L 93.8441,46.4001 L 93.5989,46.4972
 L 93.3435,46.5628 L 93.0818,46.5959 z
M 62.8181,46.5959 L 62.5565,46.5628 L 62.3011,46.4972 L 62.0559,46.4001 L 61.8248,46.2731 L 61.6114,46.1181
 L 61.4192,45.9375 L 61.2511,45.7343 L 61.1098,45.5117 L 60.9975,45.2731 L 60.916,45.0222 L 60.8666,44.7632
 L 60.85,44.5 L 60.85,40.64 L 57.9495,40.64 L 57.9495,38.638 L 60.85,38.638 L 60.85,14.5
 L 60.8666,14.2368 L 60.916,13.9778 L 60.9975,13.7269 L 61.1098,13.4883 L 61.2511,13.2657 L 61.4192,13.0625
 L 61.6114,12.8819 L 61.8248,12.7269 L 62.0559,12.5999 L 62.3011,12.5028 L 62.5565,12.4372 L 62.8181,12.4041
 L 63.0819,12.4041 L 63.3435,12.4372 L 63.5989,12.5028 L 63.8441,12.5999 L 64.0752,12.7269 L 64.2886,12.8819
 L 64.4808,13.0625 L 64.6489,13.2657 L 64.7903,13.4883 L 64.9025,13.7269 L 64.984,13.9778 L 65.0334,14.2368
 L 65.05,14.5 L 65.05,44.5 L 65.0334,44.7632 L 64.984,45.0222 L 64.9025,45.2731 L 64.7903,45.5117
 L 64.6489,45.7343 L 64.4808,45.9375 L 64.2886,46.1181 L 64.0752,46.2731 L 63.8441,46.4001 L 63.5989,46.4972
 L 63.3435,46.5628 L 63.0819,46.5959 z
M -102.95,40.64 L -102.95,38.638 L -97.9495,38.638 L -97.9495,40.64 z
M 47.9495,40.64 L 47.9495,38.638 L 52.9505,38.638 L 52.9505,40.64 z
M 67.9495,40.64 L 67.9495,38.638 L 72.9505,38.638 L 72.9505,40.64 z
M 77.9495,40.64 L 77.9495,38.638 L 82.9505,38.638 L 82.9505,40.64 z
M 97.9495,40.64 L 97.9495,38.638 L 102.95,38.638 L 102.95,40.64 z
M -52.9505,40.64 L -52.9505,38.638 L -47.9495,38.638 L -47.9495,40.64 z
M -72.9505,40.64 L -72.9505,38.638 L -67.9495,38.638 L -67.9495,40.64 z
M -82.9505,40.64 L -82.9505,38.638 L -77.9495,38.638 L -77.9495,40.64 z
M -40.64,52.9505 L -40.64,47.9495 L -38.638,47.9495 L -38.638,52.9505 z
M 38.638,52.9505 L 38.638,47.9495 L 40.64,47.9495 L 40.64,52.9505 z
M 38.638,62.9505 L 38.638,57.9495 L 40.64,57.9495 L 40.64,62.9505 z
M -40.64,62.9505 L -40.64,57.9495 L -38.638,57.9495 L -38.638,62.9505 z
M -40.64,72.9505 L -40.64,67.9495 L -38.638,67.9495 L -38.638,72.9505 z
M 38.638,72.9505 L 38.638,67.9495 L 40.64,67.9495 L 40.64,72.9505 z
M 38.638,82.9505 L 38.638,77.9495 L 40.64,77.9495 L 40.64,82.9505 z
M -40.64,82.9505 L -40.64,77.9495 L -38.638,77.9495 L -38.638,82.9505 z
M 38.638,92.9505 L 38.638,87.9495 L 40.64,87.9495 L 40.64,92.9505 z
M -40.64,92.9505 L -40.64,87.9495 L -38.638,87.9495 L -38.638,92.9505 z
M -40.64,102.95 L -40.64,97.9495 L -38.638,97.9495 L -38.638,102.95 z
M 38.638,102.95 L 38.638,97.9495 L 40.64,97.9495 L 40.64,102.95 z
" stroke="black" fill="lightgray" stroke-width="0.5"/></svg>
