<?xml version="1.0" standalone="no"?>
<!DOCTYPE svg PUBLIC "-//W3C//DTD SVG 1.1//EN" "http://www.w3.org/Graphics/SVG/1.1/DTD/svg11.dtd">
<svg width="216" height="208" viewBox="-108 -275 216 208" xmlns="http://www.w3.org/2000/svg" version="1.1">
<title>OpenSCAD Model</title>
<path d="
M -33.8605,-69.0975 L -31.2604,-73.1945 L -28.1673,-76.9334 L -24.6301,-80.2551 L -20.7043,-83.1073 L -16.4521,-85.445
 L -11.9404,-87.2313 L -7.2404,-88.4381 L -2.42622,-89.0462 L 2.42622,-89.0462 L 7.2404,-88.4381 L 11.9404,-87.2313
 L 16.4521,-85.445 L 20.7043,-83.1073 L 24.6301,-80.2551 L 28.1673,-76.9334 L 31.2604,-73.1945 L 33.8605,-69.0975
 L 34.7016,-67.31 L 40.64,-67.31 L 40.64,-72.31 L 47.95,-72.31 L 47.95,-67.3095 L 52.95,-67.3095
 L 52.95,-72.31 L 57.95,-72.31 L 57.95,-67.3095 L 62.95,-67.3095 L 62.95,-72.31 L 67.95,-72.31
 L 67.95,-67.3095 L 72.95,-67.3095 L 72.95,-72.31 L 77.95,-72.31 L 77.95,-67.3095 L 82.95,-67.3095
 L 82.95,-72.31 L 87.95,-72.31 L 87.95,-67.3095 L 92.95,-67.3095 L 92.95,-72.31 L 97.95,-72.31
 L 97.95,-67.3095 L 102.95,-67.3095 L 102.95,-72.31 L 107.95,-72.31 L 107.95,-274.32 L 40.64,-274.32
 L 40.64,-138.51 L 38.64,-138.51 L 38.64,-229.87 L -38.64,-229.87 L -38.64,-138.51 L -40.64,-138.51
 L -40.64,-274.32 L -107.95,-274.32 L -107.95,-72.31 L -102.95,-72.31 L -102.95,-67.3095 L -97.95,-67.3095
 L -97.95,-72.31 L -92.95,-72.31 L -92.95,-67.3095 L -87.95,-67.3095 L -87.95,-72.31 L -82.95,-72.31
 L -82.95,-67.3095 L -77.95,-67.3095 L -77.95,-72.31 L -72.95,-72.31 L -72.95,-67.3095 L -67.95,-67.3095
 L -67.95,-72.31 L -62.95,-72.31 L -62.95,-67.3095 L -57.95,-67.3095 L -57.95,-72.31 L -52.95,-72.31
 L -52.95,-67.3095 L -47.95,-67.3095 L -47.95,-72.31 L -40.64,-72.31 L -40.64,-67.31 L -34.7016,-67.31
 z
M -93.64,-221.02 L -93.64,-226.02 L -88.64,-226.02 L -88.64,-221.02 z
M -83.64,-221.02 L -83.64,-226.02 L -78.64,-226.02 L -78.64,-221.02 z
M -73.64,-221.02 L -73.64,-226.02 L -68.64,-226.02 L -68.64,-221.02 z
M -63.64,-221.02 L -63.64,-226.02 L -58.64,-226.02 L -58.64,-221.02 z
M 98.64,-221.02 L 98.64,-226.02 L 103.64,-226.02 L 103.64,-221.02 z
M 88.64,-221.02 L 88.64,-226.02 L 93.64,-226.02 L 93.64,-221.02 z
M 78.64,-221.02 L 78.64,-226.02 L 83.64,-226.02 L 83.64,-221.02 z
M 68.64,-221.02 L 68.64,-226.02 L 73.64,-226.02 L 73.64,-221.02 z
M 58.64,-221.02 L 58.64,-226.02 L 63.64,-226.02 L 63.64,-221.02 z
M -53.64,-221.02 L -53.64,-226.02 L -48.64,-226.02 L -48.64,-221.02 z
M -103.64,-221.02 L -103.64,-226.02 L -98.64,-226.02 L -98.64,-221.02 z
M 48.64,-221.02 L 48.64,-226.02 L 53.64,-226.02 L 53.64,-221.02 z
M 19.345,-143.509 L 19.345,-148.51 L 24.345,-148.51 L 24.345,-143.509 z
M -30.655,-143.509 L -30.655,-148.51 L -25.655,-148.51 L -25.655,-143.509 z
M -20.655,-143.509 L -20.655,-148.51 L -15.655,-148.51 L -15.655,-143.509 z
M -10.655,-143.509 L -10.655,-148.51 L -5.65498,-148.51 L -5.65498,-143.509 z
M -0.654984,-143.509 L -0.654984,-148.51 L 4.345,-148.51 L 4.345,-143.509 z
M 9.345,-143.509 L 9.345,-148.51 L 14.345,-148.51 L 14.345,-143.509 z
M 45.64,-77.31 L 45.64,-105.398 L 94.2897,-77.31 z
M -94.2897,-77.31 L -45.64,-105.398 L -45.64,-77.31 z
" stroke="black" fill="lightgray" stroke-width="0.5"/></svg>
