<?xml version="1.0" standalone="no"?>
<!DOCTYPE svg PUBLIC "-//W3C//DTD SVG 1.1//EN" "http://www.w3.org/Graphics/SVG/1.1/DTD/svg11.dtd">
<svg width="70" height="71" viewBox="-34 -68 70 71" xmlns="http://www.w3.org/2000/svg" version="1.1">
<title>OpenSCAD Model</title>
<path d="
M -24.345,-0 L -19.345,-0 L -19.345,2.00049 L -14.345,2.00049 L -14.345,-0 L -9.34499,-0
 L -9.34499,2.00049 L -4.34499,2.00049 L -4.34499,-0 L 0.654999,-0 L 0.654999,2.00049 L 5.655,2.00049
 L 5.655,-0 L 10.655,-0 L 10.655,2.00049 L 15.655,2.00049 L 15.655,-0 L 20.655,-0
 L 20.655,2.00049 L 25.655,2.00049 L 25.655,-0 L 33.655,-0 L 33.655,-8 L 35.6555,-8
 L 35.6555,-13 L 33.655,-13 L 33.655,-18 L 35.6555,-18 L 35.6555,-23 L 33.655,-23
 L 33.655,-28 L 35.6555,-28 L 35.6555,-33 L 33.655,-33 L 33.655,-38 L 35.6555,-38
 L 35.6555,-43 L 33.655,-43 L 33.655,-48 L 35.6555,-48 L 35.6555,-53 L 33.655,-53
 L 33.655,-58 L 35.6555,-58 L 35.6555,-63 L 33.655,-63 L 33.655,-67.31 L -33.655,-67.31
 L -33.655,-0 L -29.345,-0 L -29.345,2.00049 L -24.345,2.00049 z
" stroke="black" fill="lightgray" stroke-width="0.5"/></svg>
