<?xml version="1.0" standalone="no"?>
<!DOCTYPE svg PUBLIC "-//W3C//DTD SVG 1.1//EN" "http://www.w3.org/Graphics/SVG/1.1/DTD/svg11.dtd">
<svg width="82" height="70" viewBox="-41 -70 82 70" xmlns="http://www.w3.org/2000/svg" version="1.1">
<title>OpenSCAD Model</title>
<path d="
M 38.64,-5 L 40.64,-5 L 40.64,-10 L 38.64,-10 L 38.64,-15 L 40.64,-15
 L 40.64,-20 L 38.64,-20 L 38.64,-25 L 40.64,-25 L 40.64,-30 L 38.64,-30
 L 38.64,-35 L 40.64,-35 L 40.64,-40 L 38.64,-40 L 38.64,-45 L 40.64,-45
 L 40.64,-50 L 38.64,-50 L 38.64,-55 L 40.64,-55 L 40.64,-60 L 38.64,-60
 L 38.64,-67.31 L 24.345,-67.31 L 24.345,-69.31 L 19.345,-69.31 L 19.345,-67.31 L 14.345,-67.31
 L 14.345,-69.31 L 9.345,-69.31 L 9.345,-67.31 L 4.345,-67.31 L 4.345,-69.31 L -0.654984,-69.31
 L -0.654984,-67.31 L -5.65498,-67.31 L -5.65498,-69.31 L -10.655,-69.31 L -10.655,-67.31 L -15.655,-67.31
 L -15.655,-69.31 L -20.655,-69.31 L -20.655,-67.31 L -25.655,-67.31 L -25.655,-69.31 L -30.655,-69.31
 L -30.655,-67.31 L -38.64,-67.31 L -38.64,-60 L -40.64,-60 L -40.64,-55 L -38.64,-55
 L -38.64,-50 L -40.64,-50 L -40.64,-45 L -38.64,-45 L -38.64,-40 L -40.64,-40
 L -40.64,-35 L -38.64,-35 L -38.64,-30 L -40.64,-30 L -40.64,-25 L -38.64,-25
 L -38.64,-20 L -40.64,-20 L -40.64,-15 L -38.64,-15 L -38.64,-10 L -40.64,-10
 L -40.64,-5 L -38.64,-5 L -38.64,-0 L 38.64,-0 z
" stroke="black" fill="lightgray" stroke-width="0.5"/></svg>
