<?xml version="1.0" standalone="no"?>
<!DOCTYPE svg PUBLIC "-//W3C//DTD SVG 1.1//EN" "http://www.w3.org/Graphics/SVG/1.1/DTD/svg11.dtd">
<svg width="216" height="272" viewBox="-108 -275 216 272" xmlns="http://www.w3.org/2000/svg" version="1.1">
<title>OpenSCAD Model</title>
<path d="
M 38.64,-138.511 L 40.64,-138.511 L 40.64,-72.31 L 47.95,-72.31 L 47.95,-67.3095 L 52.95,-67.3095
 L 52.95,-72.31 L 57.95,-72.31 L 57.95,-67.3095 L 62.95,-67.3095 L 62.95,-72.31 L 67.95,-72.31
 L 67.95,-67.3095 L 72.95,-67.3095 L 72.95,-72.31 L 77.95,-72.31 L 77.95,-67.3095 L 82.95,-67.3095
 L 82.95,-72.31 L 87.95,-72.31 L 87.95,-67.3095 L 92.95,-67.3095 L 92.95,-72.31 L 97.95,-72.31
 L 97.95,-67.3095 L 102.95,-67.3095 L 102.95,-72.31 L 107.95,-72.31 L 107.95,-274.32 L 38.64,-274.32
 L 38.64,-229.87 L -38.64,-229.87 L -38.64,-274.32 L -107.95,-274.32 L -107.95,-72.31 L -102.95,-72.31
 L -102.95,-67.3095 L -97.95,-67.3095 L -97.95,-72.31 L -92.95,-72.31 L -92.95,-67.3095 L -87.95,-67.3095
 L -87.95,-72.31 L -82.95,-72.31 L -82.95,-67.3095 L -77.95,-67.3095 L -77.95,-72.31 L -72.95,-72.31
 L -72.95,-67.3095 L -67.95,-67.3095 L -67.95,-72.31 L -62.95,-72.31 L -62.95,-67.3095 L -57.95,-67.3095
 L -57.95,-72.31 L -52.95,-72.31 L -52.95,-67.3095 L -47.95,-67.3095 L -47.95,-72.31 L -40.64,-72.31
 L -40.64,-138.511 L -38.64,-138.511 L -38.64,-3 L 38.64,-3 z
M 98.64,-221.02 L 98.64,-226.02 L 103.64,-226.02 L 103.64,-221.02 z
M 48.64,-221.02 L 48.64,-226.02 L 53.64,-226.02 L 53.64,-221.02 z
M 58.64,-221.02 L 58.64,-226.02 L 63.64,-226.02 L 63.64,-221.02 z
M 68.64,-221.02 L 68.64,-226.02 L 73.64,-226.02 L 73.64,-221.02 z
M 78.64,-221.02 L 78.64,-226.02 L 83.64,-226.02 L 83.64,-221.02 z
M 88.64,-221.02 L 88.64,-226.02 L 93.64,-226.02 L 93.64,-221.02 z
M -53.64,-221.02 L -53.64,-226.02 L -48.64,-226.02 L -48.64,-221.02 z
M -63.64,-221.02 L -63.64,-226.02 L -58.64,-226.02 L -58.64,-221.02 z
M -73.64,-221.02 L -73.64,-226.02 L -68.64,-226.02 L -68.64,-221.02 z
M -83.64,-221.02 L -83.64,-226.02 L -78.64,-226.02 L -78.64,-221.02 z
M -93.64,-221.02 L -93.64,-226.02 L -88.64,-226.02 L -88.64,-221.02 z
M -103.64,-221.02 L -103.64,-226.02 L -98.64,-226.02 L -98.64,-221.02 z
M -102.95,-143.509 L -102.95,-148.51 L -97.95,-148.51 L -97.95,-143.509 z
M -52.95,-143.509 L -52.95,-148.51 L -47.95,-148.51 L -47.95,-143.509 z
M -62.95,-143.509 L -62.95,-148.51 L -57.95,-148.51 L -57.95,-143.509 z
M -72.95,-143.509 L -72.95,-148.51 L -67.95,-148.51 L -67.95,-143.509 z
M -82.95,-143.509 L -82.95,-148.51 L -77.95,-148.51 L -77.95,-143.509 z
M -92.95,-143.509 L -92.95,-148.51 L -87.95,-148.51 L -87.95,-143.509 z
M 45.64,-77.31 L 45.64,-105.398 L 94.2897,-77.31 z
M -94.2897,-77.31 L -45.64,-105.398 L -45.64,-77.31 z
" stroke="black" fill="lightgray" stroke-width="0.5"/></svg>
