<?xml version="1.0" standalone="no"?>
<!DOCTYPE svg PUBLIC "-//W3C//DTD SVG 1.1//EN" "http://www.w3.org/Graphics/SVG/1.1/DTD/svg11.dtd">
<svg width="216" height="216" viewBox="-108 -108 216 216" xmlns="http://www.w3.org/2000/svg" version="1.1">
<title>OpenSCAD Model</title>
<path d="
M -99.5505,105.95 L -94.5495,105.95 L -94.5495,107.95 L -89.5505,107.95 L -89.5505,105.95 L -84.5495,105.95
 L -84.5495,107.95 L -79.5505,107.95 L -79.5505,105.95 L -74.5495,105.95 L -74.5495,107.95 L -69.5505,107.95
 L -69.5505,105.95 L -64.5495,105.95 L -64.5495,107.95 L -59.5505,107.95 L -59.5505,105.95 L -54.5495,105.95
 L -54.5495,107.95 L -49.5505,107.95 L -49.5505,105.95 L -44.5495,105.95 L -44.5495,107.95 L -39.5505,107.95
 L -39.5505,105.95 L -34.5495,105.95 L -34.5495,107.95 L -29.5505,107.95 L -29.5505,105.95 L -24.5495,105.95
 L -24.5495,107.95 L -19.5505,107.95 L -19.5505,105.95 L -14.5495,105.95 L -14.5495,107.95 L -9.55049,107.95
 L -9.55049,105.95 L -4.5495,105.95 L -4.5495,107.95 L 0.449478,107.95 L 0.449478,105.95 L 5.45047,105.95
 L 5.45047,107.95 L 10.4495,107.95 L 10.4495,105.95 L 15.4505,105.95 L 15.4505,107.95 L 20.4495,107.95
 L 20.4495,105.95 L 25.4505,105.95 L 25.4505,107.95 L 30.4495,107.95 L 30.4495,105.95 L 35.4505,105.95
 L 35.4505,107.95 L 40.4495,107.95 L 40.4495,105.95 L 45.4505,105.95 L 45.4505,107.95 L 50.4495,107.95
 L 50.4495,105.95 L 55.4505,105.95 L 55.4505,107.95 L 60.4495,107.95 L 60.4495,105.95 L 65.4505,105.95
 L 65.4505,107.95 L 70.4495,107.95 L 70.4495,105.95 L 75.4505,105.95 L 75.4505,107.95 L 80.4495,107.95
 L 80.4495,105.95 L 85.4505,105.95 L 85.4505,107.95 L 90.4495,107.95 L 90.4495,105.95 L 95.4505,105.95
 L 95.4505,107.95 L 100.449,107.95 L 100.449,105.95 L 105.45,105.95 L 105.45,107.95 L 107.95,107.95
 L 107.95,99.5505 L 105.95,99.5505 L 105.95,94.5495 L 107.95,94.5495 L 107.95,89.5505 L 105.95,89.5505
 L 105.95,84.5495 L 107.95,84.5495 L 107.95,79.5505 L 105.95,79.5505 L 105.95,74.5495 L 107.95,74.5495
 L 107.95,69.5505 L 105.95,69.5505 L 105.95,64.5495 L 107.95,64.5495 L 107.95,59.5505 L 105.95,59.5505
 L 105.95,54.5495 L 107.95,54.5495 L 107.95,49.5505 L 105.95,49.5505 L 105.95,44.5495 L 107.95,44.5495
 L 107.95,39.5505 L 105.95,39.5505 L 105.95,34.5495 L 107.95,34.5495 L 107.95,29.5505 L 105.95,29.5505
 L 105.95,24.5495 L 107.95,24.5495 L 107.95,19.5505 L 105.95,19.5505 L 105.95,14.5495 L 107.95,14.5495
 L 107.95,9.55049 L 105.95,9.55049 L 105.95,4.5495 L 107.95,4.5495 L 107.95,-0.449478 L 105.95,-0.449478
 L 105.95,-5.45047 L 107.95,-5.45047 L 107.95,-10.4495 L 105.95,-10.4495 L 105.95,-15.4505 L 107.95,-15.4505
 L 107.95,-20.4495 L 105.95,-20.4495 L 105.95,-25.4505 L 107.95,-25.4505 L 107.95,-30.4495 L 105.95,-30.4495
 L 105.95,-35.4505 L 107.95,-35.4505 L 107.95,-40.4495 L 105.95,-40.4495 L 105.95,-45.4505 L 107.95,-45.4505
 L 107.95,-50.4495 L 105.95,-50.4495 L 105.95,-55.4505 L 107.95,-55.4505 L 107.95,-60.4495 L 105.95,-60.4495
 L 105.95,-65.4505 L 107.95,-65.4505 L 107.95,-70.4495 L 105.95,-70.4495 L 105.95,-75.4505 L 107.95,-75.4505
 L 107.95,-80.4495 L 105.95,-80.4495 L 105.95,-85.4505 L 107.95,-85.4505 L 107.95,-90.4495 L 105.95,-90.4495
 L 105.95,-95.4505 L 107.95,-95.4505 L 107.95,-100.449 L 105.95,-100.449 L 105.95,-105.45 L 107.95,-105.45
 L 107.95,-107.95 L 99.5505,-107.95 L 99.5505,-105.95 L 94.5495,-105.95 L 94.5495,-107.95 L 89.5505,-107.95
 L 89.5505,-105.95 L 84.5495,-105.95 L 84.5495,-107.95 L 79.5505,-107.95 L 79.5505,-105.95 L 74.5495,-105.95
 L 74.5495,-107.95 L 69.5505,-107.95 L 69.5505,-105.95 L 64.5495,-105.95 L 64.5495,-107.95 L 59.5505,-107.95
 L 59.5505,-105.95 L 54.5495,-105.95 L 54.5495,-107.95 L 49.5505,-107.95 L 49.5505,-105.95 L 44.5495,-105.95
 L 44.5495,-107.95 L 39.5505,-107.95 L 39.5505,-105.95 L 34.5495,-105.95 L 34.5495,-107.95 L 29.5505,-107.95
 L 29.5505,-105.95 L 24.5495,-105.95 L 24.5495,-107.95 L 19.5505,-107.95 L 19.5505,-105.95 L 14.5495,-105.95
 L 14.5495,-107.95 L 9.55049,-107.95 L 9.55049,-105.95 L 8.41374,-105.95 L 8.41374,-56.9743 L 11.9404,-56.0688
 L 16.4521,-54.2825 L 20.7043,-51.9448 L 24.6301,-49.0926 L 28.1673,-45.7709 L 31.2604,-42.032 L 32.1438,-40.64
 L 40.64,-40.64 L 40.64,40.64 L -40.64,40.64 L -40.64,-40.64 L -32.1438,-40.64 L -31.2604,-42.032
 L -30.1155,-43.416 L -30.1155,-48.1405 L -28.1145,-48.1405 L -28.1145,-45.8205 L -24.6301,-49.0926 L -20.7043,-51.9448
 L -16.4521,-54.2825 L -11.9404,-56.0688 L -8.41374,-56.9743 L -8.41374,-107.95 L -10.4495,-107.95 L -10.4495,-105.95
 L -15.4505,-105.95 L -15.4505,-107.95 L -20.4495,-107.95 L -20.4495,-105.95 L -25.4505,-105.95 L -25.4505,-107.95
 L -30.4495,-107.95 L -30.4495,-105.95 L -35.4505,-105.95 L -35.4505,-107.95 L -40.4495,-107.95 L -40.4495,-105.95
 L -45.4505,-105.95 L -45.4505,-107.95 L -50.4495,-107.95 L -50.4495,-105.95 L -55.4505,-105.95 L -55.4505,-107.95
 L -60.4495,-107.95 L -60.4495,-105.95 L -65.4505,-105.95 L -65.4505,-107.95 L -70.4495,-107.95 L -70.4495,-105.95
 L -75.4505,-105.95 L -75.4505,-107.95 L -80.4495,-107.95 L -80.4495,-105.95 L -85.4505,-105.95 L -85.4505,-107.95
 L -90.4495,-107.95 L -90.4495,-105.95 L -95.4505,-105.95 L -95.4505,-107.95 L -100.449,-107.95 L -100.449,-105.95
 L -105.45,-105.95 L -105.45,-107.95 L -107.95,-107.95 L -107.95,-99.5505 L -105.95,-99.5505 L -105.95,-94.5495
 L -107.95,-94.5495 L -107.95,-89.5505 L -105.95,-89.5505 L -105.95,-84.5495 L -107.95,-84.5495 L -107.95,-79.5505
 L -105.95,-79.5505 L -105.95,-74.5495 L -107.95,-74.5495 L -107.95,-69.5505 L -105.95,-69.5505 L -105.95,-64.5495
 L -107.95,-64.5495 L -107.95,-59.5505 L -105.95,-59.5505 L -105.95,-54.5495 L -107.95,-54.5495 L -107.95,-49.5505
 L -105.95,-49.5505 L -105.95,-44.5495 L -107.95,-44.5495 L -107.95,-39.5505 L -105.95,-39.5505 L -105.95,-34.5495
 L -107.95,-34.5495 L -107.95,-29.5505 L -105.95,-29.5505 L -105.95,-24.5495 L -107.95,-24.5495 L -107.95,-19.5505
 L -105.95,-19.5505 L -105.95,-14.5495 L -107.95,-14.5495 L -107.95,-9.55049 L -105.95,-9.55049 L -105.95,-4.5495
 L -107.95,-4.5495 L -107.95,0.449493 L -105.95,0.449493 L -105.95,5.45049 L -107.95,5.45049 L -107.95,10.4495
 L -105.95,10.4495 L -105.95,15.4505 L -107.95,15.4505 L -107.95,20.4495 L -105.95,20.4495 L -105.95,25.4505
 L -107.95,25.4505 L -107.95,30.4495 L -105.95,30.4495 L -105.95,35.4505 L -107.95,35.4505 L -107.95,40.4495
 L -105.95,40.4495 L -105.95,45.4505 L -107.95,45.4505 L -107.95,50.4495 L -105.95,50.4495 L -105.95,55.4505
 L -107.95,55.4505 L -107.95,60.4495 L -105.95,60.4495 L -105.95,65.4505 L -107.95,65.4505 L -107.95,70.4495
 L -105.95,70.4495 L -105.95,75.4505 L -107.95,75.4505 L -107.95,80.4495 L -105.95,80.4495 L -105.95,85.4505
 L -107.95,85.4505 L -107.95,90.4495 L -105.95,90.4495 L -105.95,95.4505 L -107.95,95.4505 L -107.95,100.449
 L -105.95,100.449 L -105.95,105.45 L -107.95,105.45 L -107.95,107.95 L -99.5505,107.95 z
M -40.64,-97.9495 L -40.64,-102.95 L -38.638,-102.95 L -38.638,-97.9495 z
M 38.638,-97.9495 L 38.638,-102.95 L 40.64,-102.95 L 40.64,-97.9495 z
M -30.1155,-93.1395 L -30.1155,-98.1405 L -28.1145,-98.1405 L -28.1145,-93.1395 z
M -40.64,-87.9495 L -40.64,-92.9505 L -38.638,-92.9505 L -38.638,-87.9495 z
M 38.638,-87.9495 L 38.638,-92.9505 L 40.64,-92.9505 L 40.64,-87.9495 z
M -30.1155,-83.1395 L -30.1155,-88.1405 L -28.1145,-88.1405 L -28.1145,-83.1395 z
M -40.64,-77.9495 L -40.64,-82.9505 L -38.638,-82.9505 L -38.638,-77.9495 z
M 38.638,-77.9495 L 38.638,-82.9505 L 40.64,-82.9505 L 40.64,-77.9495 z
M -30.1155,-73.1395 L -30.1155,-78.1405 L -28.1145,-78.1405 L -28.1145,-73.1395 z
M 38.638,-67.9495 L 38.638,-72.9505 L 40.64,-72.9505 L 40.64,-67.9495 z
M -40.64,-67.9495 L -40.64,-72.9505 L -38.638,-72.9505 L -38.638,-67.9495 z
M -30.1155,-63.1395 L -30.1155,-68.1405 L -28.1145,-68.1405 L -28.1145,-63.1395 z
M -40.64,-57.9495 L -40.64,-62.9505 L -38.638,-62.9505 L -38.638,-57.9495 z
M 38.638,-57.9495 L 38.638,-62.9505 L 40.64,-62.9505 L 40.64,-57.9495 z
M -30.1155,-53.1395 L -30.1155,-58.1405 L -28.1145,-58.1405 L -28.1145,-53.1395 z
M -40.64,-47.9495 L -40.64,-52.9505 L -38.638,-52.9505 L -38.638,-47.9495 z
M 38.638,-47.9495 L 38.638,-52.9505 L 40.64,-52.9505 L 40.64,-47.9495 z
M 58.8181,46.5959 L 58.5565,46.5628 L 58.3011,46.4972 L 58.0559,46.4001 L 57.8248,46.2731 L 57.6114,46.1181
 L 57.4192,45.9375 L 57.2511,45.7343 L 57.1098,45.5117 L 56.9975,45.2731 L 56.916,45.0222 L 56.8666,44.7632
 L 56.85,44.5 L 56.85,14.5 L 56.8579,14.375 L 56.85,14.25 L 56.85,-15.75 L 56.8579,-15.875
 L 56.85,-16 L 56.85,-46 L 56.8666,-46.2632 L 56.916,-46.5222 L 56.9975,-46.7731 L 57.1098,-47.0117
 L 57.2511,-47.2343 L 57.4192,-47.4375 L 57.6114,-47.6181 L 57.8248,-47.7731 L 58.0559,-47.9001 L 58.3011,-47.9972
 L 58.5565,-48.0628 L 58.8181,-48.0959 L 59.0819,-48.0959 L 59.3435,-48.0628 L 59.5989,-47.9972 L 59.8441,-47.9001
 L 60.0752,-47.7731 L 60.2886,-47.6181 L 60.4808,-47.4375 L 60.6489,-47.2343 L 60.7903,-47.0117 L 60.9025,-46.7731
 L 60.984,-46.5222 L 61.0334,-46.2632 L 61.05,-46 L 61.05,-40.64 L 62.9505,-40.64 L 62.9505,-38.638
 L 61.05,-38.638 L 61.05,-16 L 61.0421,-15.875 L 61.05,-15.75 L 61.05,14.25 L 61.0421,14.375
 L 61.05,14.5 L 61.05,38.638 L 62.9505,38.638 L 62.9505,40.64 L 61.05,40.64 L 61.05,44.5
 L 61.0334,44.7632 L 60.984,45.0222 L 60.9025,45.2731 L 60.7903,45.5117 L 60.6489,45.7343 L 60.4808,45.9375
 L 60.2886,46.1181 L 60.0752,46.2731 L 59.8441,46.4001 L 59.5989,46.4972 L 59.3435,46.5628 L 59.0819,46.5959
 z
M 88.8181,46.5959 L 88.5565,46.5628 L 88.3011,46.4972 L 88.0558,46.4001 L 87.8248,46.2731 L 87.6114,46.1181
 L 87.4192,45.9375 L 87.2511,45.7343 L 87.1097,45.5117 L 86.9975,45.2731 L 86.916,45.0222 L 86.8665,44.7632
 L 86.85,44.5 L 86.85,14.5 L 86.8578,14.375 L 86.85,14.25 L 86.85,-15.75 L 86.8578,-15.875
 L 86.85,-16 L 86.85,-46 L 86.8665,-46.2632 L 86.916,-46.5222 L 86.9975,-46.7731 L 87.1097,-47.0117
 L 87.2511,-47.2343 L 87.4192,-47.4375 L 87.6114,-47.6181 L 87.8248,-47.7731 L 88.0558,-47.9001 L 88.3011,-47.9972
 L 88.5565,-48.0628 L 88.8181,-48.0959 L 89.0818,-48.0959 L 89.3435,-48.0628 L 89.5989,-47.9972 L 89.8441,-47.9001
 L 90.0752,-47.7731 L 90.2886,-47.6181 L 90.4808,-47.4375 L 90.6489,-47.2343 L 90.7902,-47.0117 L 90.9025,-46.7731
 L 90.984,-46.5222 L 91.0334,-46.2632 L 91.05,-46 L 91.05,-40.64 L 92.9505,-40.64 L 92.9505,-38.638
 L 91.05,-38.638 L 91.05,-16 L 91.0421,-15.875 L 91.05,-15.75 L 91.05,14.25 L 91.0421,14.375
 L 91.05,14.5 L 91.05,38.638 L 92.9505,38.638 L 92.9505,40.64 L 91.05,40.64 L 91.05,44.5
 L 91.0334,44.7632 L 90.984,45.0222 L 90.9025,45.2731 L 90.7902,45.5117 L 90.6489,45.7343 L 90.4808,45.9375
 L 90.2886,46.1181 L 90.0752,46.2731 L 89.8441,46.4001 L 89.5989,46.4972 L 89.3435,46.5628 L 89.0818,46.5959
 z
M -89.0818,46.5959 L -89.3435,46.5628 L -89.5989,46.4972 L -89.8441,46.4001 L -90.0752,46.2731 L -90.2886,46.1181
 L -90.4808,45.9375 L -90.6489,45.7343 L -90.7902,45.5117 L -90.9025,45.2731 L -90.984,45.0222 L -91.0334,44.7632
 L -91.05,44.5 L -91.05,40.64 L -92.9505,40.64 L -92.9505,38.638 L -91.05,38.638 L -91.05,14.5
 L -91.0421,14.375 L -91.05,14.25 L -91.05,-15.75 L -91.0421,-15.875 L -91.05,-16 L -91.05,-38.638
 L -92.9505,-38.638 L -92.9505,-40.64 L -91.05,-40.64 L -91.05,-46 L -91.0334,-46.2632 L -90.984,-46.5222
 L -90.9025,-46.7731 L -90.7902,-47.0117 L -90.6489,-47.2343 L -90.4808,-47.4375 L -90.2886,-47.6181 L -90.0752,-47.7731
 L -89.8441,-47.9001 L -89.5989,-47.9972 L -89.3435,-48.0628 L -89.0818,-48.0959 L -88.8181,-48.0959 L -88.5565,-48.0628
 L -88.3011,-47.9972 L -88.0558,-47.9001 L -87.8248,-47.7731 L -87.6114,-47.6181 L -87.4192,-47.4375 L -87.2511,-47.2343
 L -87.1097,-47.0117 L -86.9975,-46.7731 L -86.916,-46.5222 L -86.8665,-46.2632 L -86.85,-46 L -86.85,-16
 L -86.8578,-15.875 L -86.85,-15.75 L -86.85,14.25 L -86.8578,14.375 L -86.85,14.5 L -86.85,44.5
 L -86.8665,44.7632 L -86.916,45.0222 L -86.9975,45.2731 L -87.1097,45.5117 L -87.2511,45.7343 L -87.4192,45.9375
 L -87.6114,46.1181 L -87.8248,46.2731 L -88.0558,46.4001 L -88.3011,46.4972 L -88.5565,46.5628 L -88.8181,46.5959
 z
M -59.0819,46.5959 L -59.3435,46.5628 L -59.5989,46.4972 L -59.8441,46.4001 L -60.0752,46.2731 L -60.2886,46.1181
 L -60.4808,45.9375 L -60.6489,45.7343 L -60.7903,45.5117 L -60.9025,45.2731 L -60.984,45.0222 L -61.0334,44.7632
 L -61.05,44.5 L -61.05,40.64 L -62.9505,40.64 L -62.9505,38.638 L -61.05,38.638 L -61.05,14.5
 L -61.0421,14.375 L -61.05,14.25 L -61.05,-15.75 L -61.0421,-15.875 L -61.05,-16 L -61.05,-38.638
 L -62.9505,-38.638 L -62.9505,-40.64 L -61.05,-40.64 L -61.05,-46 L -61.0334,-46.2632 L -60.984,-46.5222
 L -60.9025,-46.7731 L -60.7903,-47.0117 L -60.6489,-47.2343 L -60.4808,-47.4375 L -60.2886,-47.6181 L -60.0752,-47.7731
 L -59.8441,-47.9001 L -59.5989,-47.9972 L -59.3435,-48.0628 L -59.0819,-48.0959 L -58.8181,-48.0959 L -58.5565,-48.0628
 L -58.3011,-47.9972 L -58.0559,-47.9001 L -57.8248,-47.7731 L -57.6114,-47.6181 L -57.4192,-47.4375 L -57.2511,-47.2343
 L -57.1098,-47.0117 L -56.9975,-46.7731 L -56.916,-46.5222 L -56.8666,-46.2632 L -56.85,-46 L -56.85,-16
 L -56.8579,-15.875 L -56.85,-15.75 L -56.85,14.25 L -56.8579,14.375 L -56.85,14.5 L -56.85,44.5
 L -56.8666,44.7632 L -56.916,45.0222 L -56.9975,45.2731 L -57.1098,45.5117 L -57.2511,45.7343 L -57.4192,45.9375
 L -57.6114,46.1181 L -57.8248,46.2731 L -58.0559,46.4001 L -58.3011,46.4972 L -58.5565,46.5628 L -58.8181,46.5959
 z
M 67.9495,-38.638 L 67.9495,-40.64 L 72.9505,-40.64 L 72.9505,-38.638 z
M 77.9495,-38.638 L 77.9495,-40.64 L 82.9505,-40.64 L 82.9505,-38.638 z
M -102.95,-38.638 L -102.95,-40.64 L -97.9495,-40.64 L -97.9495,-38.638 z
M -82.9505,-38.638 L -82.9505,-40.64 L -77.9495,-40.64 L -77.9495,-38.638 z
M -72.9505,-38.638 L -72.9505,-40.64 L -67.9495,-40.64 L -67.9495,-38.638 z
M 97.9495,-38.638 L 97.9495,-40.64 L 102.95,-40.64 L 102.95,-38.638 z
M -52.9505,-38.638 L -52.9505,-40.64 L -47.9495,-40.64 L -47.9495,-38.638 z
M 47.9495,-38.638 L 47.9495,-40.64 L 52.9505,-40.64 L 52.9505,-38.638 z
M 47.7663,6.33746 L 46.9751,6.23752 L 46.2027,6.0392 L 45.4613,5.74565 L 44.7625,5.36148 L 44.1174,4.89275
 L 43.536,4.34686 L 43.0277,3.73242 L 42.6004,3.05913 L 42.2609,2.33759 L 42.0145,1.57918 L 41.8651,0.795853
 L 41.815,-0 L 41.8651,-0.795853 L 42.0145,-1.57918 L 42.2609,-2.33759 L 42.6004,-3.05913 L 43.0277,-3.73242
 L 43.536,-4.34686 L 44.1174,-4.89275 L 44.7625,-5.36148 L 45.4613,-5.74565 L 46.2027,-6.0392 L 46.9751,-6.23752
 L 47.7663,-6.33746 L 48.5637,-6.33746 L 49.3549,-6.23752 L 50.1272,-6.0392 L 50.8687,-5.74565 L 51.5675,-5.36148
 L 52.2126,-4.89275 L 52.7939,-4.34686 L 53.3022,-3.73242 L 53.7295,-3.05913 L 54.0691,-2.33759 L 54.3155,-1.57918
 L 54.4649,-0.795853 L 54.515,-0 L 54.4649,0.795853 L 54.3155,1.57918 L 54.0691,2.33759 L 53.7295,3.05913
 L 53.3022,3.73242 L 52.7939,4.34686 L 52.2126,4.89275 L 51.5675,5.36148 L 50.8687,5.74565 L 50.1272,6.0392
 L 49.3549,6.23752 L 48.5637,6.33746 z
M -48.5637,6.33746 L -49.3549,6.23752 L -50.1272,6.0392 L -50.8687,5.74565 L -51.5675,5.36148 L -52.2126,4.89275
 L -52.7939,4.34686 L -53.3022,3.73242 L -53.7295,3.05913 L -54.0691,2.33759 L -54.3155,1.57918 L -54.4649,0.795853
 L -54.515,-0 L -54.4649,-0.795853 L -54.3155,-1.57918 L -54.0691,-2.33759 L -53.7295,-3.05913 L -53.3022,-3.73242
 L -52.7939,-4.34686 L -52.2126,-4.89275 L -51.5675,-5.36148 L -50.8687,-5.74565 L -50.1272,-6.0392 L -49.3549,-6.23752
 L -48.5637,-6.33746 L -47.7663,-6.33746 L -46.9751,-6.23752 L -46.2027,-6.0392 L -45.4613,-5.74565 L -44.7625,-5.36148
 L -44.1174,-4.89275 L -43.536,-4.34686 L -43.0277,-3.73242 L -42.6004,-3.05913 L -42.2609,-2.33759 L -42.0145,-1.57918
 L -41.8651,-0.795853 L -41.815,-0 L -41.8651,0.795853 L -42.0145,1.57918 L -42.2609,2.33759 L -42.6004,3.05913
 L -43.0277,3.73242 L -43.536,4.34686 L -44.1174,4.89275 L -44.7625,5.36148 L -45.4613,5.74565 L -46.2027,6.0392
 L -46.9751,6.23752 L -47.7663,6.33746 z
M -72.9505,40.64 L -72.9505,38.638 L -67.9495,38.638 L -67.9495,40.64 z
M -82.9505,40.64 L -82.9505,38.638 L -77.9495,38.638 L -77.9495,40.64 z
M -52.9505,40.64 L -52.9505,38.638 L -47.9495,38.638 L -47.9495,40.64 z
M 97.9495,40.64 L 97.9495,38.638 L 102.95,38.638 L 102.95,40.64 z
M 77.9495,40.64 L 77.9495,38.638 L 82.9505,38.638 L 82.9505,40.64 z
M 67.9495,40.64 L 67.9495,38.638 L 72.9505,38.638 L 72.9505,40.64 z
M -102.95,40.64 L -102.95,38.638 L -97.9495,38.638 L -97.9495,40.64 z
M 47.9495,40.64 L 47.9495,38.638 L 52.9505,38.638 L 52.9505,40.64 z
M 38.638,52.9505 L 38.638,47.9495 L 40.64,47.9495 L 40.64,52.9505 z
M -40.64,52.9505 L -40.64,47.9495 L -38.638,47.9495 L -38.638,52.9505 z
M 38.638,62.9505 L 38.638,57.9495 L 40.64,57.9495 L 40.64,62.9505 z
M -40.64,62.9505 L -40.64,57.9495 L -38.638,57.9495 L -38.638,62.9505 z
M 38.638,72.9505 L 38.638,67.9495 L 40.64,67.9495 L 40.64,72.9505 z
M -40.64,72.9505 L -40.64,67.9495 L -38.638,67.9495 L -38.638,72.9505 z
M 38.638,82.9505 L 38.638,77.9495 L 40.64,77.9495 L 40.64,82.9505 z
M -40.64,82.9505 L -40.64,77.9495 L -38.638,77.9495 L -38.638,82.9505 z
M 38.638,92.9505 L 38.638,87.9495 L 40.64,87.9495 L 40.64,92.9505 z
M -40.64,92.9505 L -40.64,87.9495 L -38.638,87.9495 L -38.638,92.9505 z
M 38.638,102.95 L 38.638,97.9495 L 40.64,97.9495 L 40.64,102.95 z
M -40.64,102.95 L -40.64,97.9495 L -38.638,97.9495 L -38.638,102.95 z
" stroke="black" fill="lightgray" stroke-width="0.5"/></svg>
