<?xml version="1.0" standalone="no"?>
<!DOCTYPE svg PUBLIC "-//W3C//DTD SVG 1.1//EN" "http://www.w3.org/Graphics/SVG/1.1/DTD/svg11.dtd">
<svg width="220" height="213" viewBox="-110 -280 220 213" xmlns="http://www.w3.org/2000/svg" version="1.1">
<title>OpenSCAD Model</title>
<path d="
M -33.8605,-69.0975 L -31.2604,-73.1945 L -28.1673,-76.9334 L -24.6301,-80.2551 L -20.7043,-83.1073 L -16.4521,-85.445
 L -11.9404,-87.2313 L -7.2404,-88.4381 L -2.42622,-89.0462 L 2.42622,-89.0462 L 7.2404,-88.4381 L 11.9404,-87.2313
 L 16.4521,-85.445 L 20.7043,-83.1073 L 24.6301,-80.2551 L 28.1673,-76.9334 L 31.2604,-73.1945 L 33.8605,-69.0975
 L 34.7016,-67.31 L 40.64,-67.31 L 40.64,-72.31 L 47.95,-72.31 L 47.95,-67.3095 L 52.95,-67.3095
 L 52.95,-72.31 L 57.95,-72.31 L 57.95,-67.3095 L 62.95,-67.3095 L 62.95,-72.31 L 67.95,-72.31
 L 67.95,-67.3095 L 72.95,-67.3095 L 72.95,-72.31 L 77.95,-72.31 L 77.95,-67.3095 L 82.95,-67.3095
 L 82.95,-72.31 L 87.95,-72.31 L 87.95,-67.3095 L 92.95,-67.3095 L 92.95,-72.31 L 97.95,-72.31
 L 97.95,-67.3095 L 102.95,-67.3095 L 102.95,-72.31 L 107.95,-72.31 L 107.95,-74.81 L 109.95,-74.81
 L 109.95,-79.81 L 107.95,-79.81 L 107.95,-84.81 L 109.95,-84.81 L 109.95,-89.81 L 107.95,-89.81
 L 107.95,-94.81 L 109.95,-94.81 L 109.95,-99.81 L 107.95,-99.81 L 107.95,-104.81 L 109.95,-104.81
 L 109.95,-109.81 L 107.95,-109.81 L 107.95,-114.81 L 109.95,-114.81 L 109.95,-119.81 L 107.95,-119.81
 L 107.95,-124.81 L 109.95,-124.81 L 109.95,-129.81 L 107.95,-129.81 L 107.95,-134.81 L 109.95,-134.81
 L 109.95,-139.81 L 107.95,-139.81 L 107.95,-144.81 L 109.95,-144.81 L 109.95,-149.81 L 107.95,-149.81
 L 107.95,-154.81 L 109.95,-154.81 L 109.95,-159.81 L 107.95,-159.81 L 107.95,-164.81 L 109.95,-164.81
 L 109.95,-169.81 L 107.95,-169.81 L 107.95,-174.81 L 109.95,-174.81 L 109.95,-179.81 L 107.95,-179.81
 L 107.95,-184.81 L 109.95,-184.81 L 109.95,-189.81 L 107.95,-189.81 L 107.95,-194.81 L 109.95,-194.81
 L 109.95,-199.81 L 107.95,-199.81 L 107.95,-204.81 L 109.95,-204.81 L 109.95,-209.81 L 107.95,-209.81
 L 107.95,-214.81 L 109.95,-214.81 L 109.95,-219.81 L 107.95,-219.81 L 107.95,-224.81 L 109.95,-224.81
 L 109.95,-229.81 L 107.95,-229.81 L 107.95,-234.81 L 109.95,-234.81 L 109.95,-239.81 L 107.95,-239.81
 L 107.95,-244.81 L 109.95,-244.81 L 109.95,-249.81 L 107.95,-249.81 L 107.95,-254.81 L 109.95,-254.81
 L 109.95,-259.81 L 107.95,-259.81 L 107.95,-264.81 L 109.95,-264.81 L 109.95,-269.81 L 107.95,-269.81
 L 107.95,-279.4 L 40.64,-279.4 L 40.64,-119.46 L 38.64,-119.46 L 38.64,-234.95 L -38.64,-234.95
 L -38.64,-119.46 L -40.64,-119.46 L -40.64,-279.4 L -107.95,-279.4 L -107.95,-269.81 L -109.95,-269.81
 L -109.95,-264.81 L -107.95,-264.81 L -107.95,-259.81 L -109.95,-259.81 L -109.95,-254.81 L -107.95,-254.81
 L -107.95,-249.81 L -109.95,-249.81 L -109.95,-244.81 L -107.95,-244.81 L -107.95,-239.81 L -109.95,-239.81
 L -109.95,-234.81 L -107.95,-234.81 L -107.95,-229.81 L -109.95,-229.81 L -109.95,-224.81 L -107.95,-224.81
 L -107.95,-219.81 L -109.95,-219.81 L -109.95,-214.81 L -107.95,-214.81 L -107.95,-209.81 L -109.95,-209.81
 L -109.95,-204.81 L -107.95,-204.81 L -107.95,-199.81 L -109.95,-199.81 L -109.95,-194.81 L -107.95,-194.81
 L -107.95,-189.81 L -109.95,-189.81 L -109.95,-184.81 L -107.95,-184.81 L -107.95,-179.81 L -109.95,-179.81
 L -109.95,-174.81 L -107.95,-174.81 L -107.95,-72.31 L -102.95,-72.31 L -102.95,-67.3095 L -97.95,-67.3095
 L -97.95,-72.31 L -92.95,-72.31 L -92.95,-67.3095 L -87.95,-67.3095 L -87.95,-72.31 L -82.95,-72.31
 L -82.95,-67.3095 L -77.95,-67.3095 L -77.95,-72.31 L -72.95,-72.31 L -72.95,-67.3095 L -67.95,-67.3095
 L -67.95,-72.31 L -62.95,-72.31 L -62.95,-67.3095 L -57.95,-67.3095 L -57.95,-72.31 L -52.95,-72.31
 L -52.95,-67.3095 L -47.95,-67.3095 L -47.95,-72.31 L -40.64,-72.31 L -40.64,-67.31 L -34.7016,-67.31
 z
M -103.64,-226.1 L -103.64,-231.1 L -98.6395,-231.1 L -98.6395,-226.1 z
M -83.6405,-226.1 L -83.6405,-231.1 L -78.6395,-231.1 L -78.6395,-226.1 z
M -73.6405,-226.1 L -73.6405,-231.1 L -68.6395,-231.1 L -68.6395,-226.1 z
M -63.6405,-226.1 L -63.6405,-231.1 L -58.6395,-231.1 L -58.6395,-226.1 z
M 98.6395,-226.1 L 98.6395,-231.1 L 103.64,-231.1 L 103.64,-226.1 z
M 88.6395,-226.1 L 88.6395,-231.1 L 93.6405,-231.1 L 93.6405,-226.1 z
M 78.6395,-226.1 L 78.6395,-231.1 L 83.6405,-231.1 L 83.6405,-226.1 z
M 68.6395,-226.1 L 68.6395,-231.1 L 73.6405,-231.1 L 73.6405,-226.1 z
M 58.6395,-226.1 L 58.6395,-231.1 L 63.6405,-231.1 L 63.6405,-226.1 z
M 48.6395,-226.1 L 48.6395,-231.1 L 53.6405,-231.1 L 53.6405,-226.1 z
M -93.6405,-226.1 L -93.6405,-231.1 L -88.6395,-231.1 L -88.6395,-226.1 z
M -53.6405,-226.1 L -53.6405,-231.1 L -48.6395,-231.1 L -48.6395,-226.1 z
M -96.9912,-77.31 L -45.64,-120.399 L -45.64,-77.31 z
M 45.64,-77.31 L 45.64,-120.399 L 96.9912,-77.31 z
" stroke="black" fill="lightgray" stroke-width="0.5"/></svg>
