<?xml version="1.0" standalone="no"?>
<!DOCTYPE svg PUBLIC "-//W3C//DTD SVG 1.1//EN" "http://www.w3.org/Graphics/SVG/1.1/DTD/svg11.dtd">
<svg width="57" height="219" viewBox="-26 -110 57 219" xmlns="http://www.w3.org/2000/svg" version="1.1">
<title>OpenSCAD Model</title>
<path d="
M 25.4,105.45 L 30.4,105.45 L 30.4,100.45 L 25.4,100.45 L 25.4,95.45 L 30.4,95.45
 L 30.4,90.45 L 25.4,90.45 L 25.4,85.45 L 30.4,85.45 L 30.4,80.45 L 25.4,80.45
 L 25.4,75.45 L 30.4,75.45 L 30.4,70.45 L 25.4,70.45 L 25.4,65.45 L 30.4,65.45
 L 30.4,60.45 L 25.4,60.45 L 25.4,55.45 L 30.4,55.45 L 30.4,50.45 L 25.4,50.45
 L 25.4,45.45 L 30.4,45.45 L 30.4,40.45 L 25.4,40.45 L 25.4,35.45 L 30.4,35.45
 L 30.4,30.45 L 25.4,30.45 L 25.4,25.45 L 30.4,25.45 L 30.4,20.45 L 25.4,20.45
 L 25.4,15.45 L 30.4,15.45 L 30.4,10.45 L 25.4,10.45 L 25.4,5.45 L 30.4,5.45
 L 30.4,0.449997 L 25.4,0.449997 L 25.4,-4.54999 L 30.4,-4.54999 L 30.4,-9.54999 L 25.4,-9.54999
 L 25.4,-14.55 L 30.4,-14.55 L 30.4,-19.55 L 25.4,-19.55 L 25.4,-24.55 L 30.4,-24.55
 L 30.4,-29.55 L 25.4,-29.55 L 25.4,-34.55 L 30.4,-34.55 L 30.4,-39.55 L 25.4,-39.55
 L 25.4,-44.55 L 30.4,-44.55 L 30.4,-49.55 L 25.4,-49.55 L 25.4,-54.55 L 30.4,-54.55
 L 30.4,-59.55 L 25.4,-59.55 L 25.4,-64.55 L 30.4,-64.55 L 30.4,-69.55 L 25.4,-69.55
 L 25.4,-74.55 L 30.4,-74.55 L 30.4,-79.55 L 25.4,-79.55 L 25.4,-84.55 L 30.4,-84.55
 L 30.4,-89.55 L 25.4,-89.55 L 25.4,-94.55 L 30.4,-94.55 L 30.4,-99.55 L 25.4,-99.55
 L 25.4,-107.95 L 22.1,-107.95 L 22.1,-109.95 L 17.1,-109.95 L 17.1,-107.95 L 12.1,-107.95
 L 12.1,-109.95 L 7.09999,-109.95 L 7.09999,-107.95 L 2.09999,-107.95 L 2.09999,-109.95 L -2.89999,-109.95
 L -2.89999,-107.95 L -7.89999,-107.95 L -7.89999,-109.95 L -12.9,-109.95 L -12.9,-107.95 L -17.9,-107.95
 L -17.9,-109.95 L -22.9,-109.95 L -22.9,-107.95 L -25.4,-107.95 L -25.4,108.95 L -22.9005,108.95
 L -22.9005,107.95 L -17.8995,107.95 L -17.8995,108.95 L -12.9005,108.95 L -12.9005,107.95 L -7.89949,107.95
 L -7.89949,108.95 L -2.9005,108.95 L -2.9005,107.95 L 2.10049,107.95 L 2.10049,108.95 L 7.09949,108.95
 L 7.09949,107.95 L 12.1005,107.95 L 12.1005,108.95 L 17.0995,108.95 L 17.0995,107.95 L 22.1005,107.95
 L 22.1005,108.95 L 25.4,108.95 z
" stroke="black" fill="lightgray" stroke-width="0.5"/></svg>
