<?xml version="1.0" standalone="no"?>
<!DOCTYPE svg PUBLIC "-//W3C//DTD SVG 1.1//EN" "http://www.w3.org/Graphics/SVG/1.1/DTD/svg11.dtd">
<svg width="70" height="71" viewBox="-34 -68 70 71" xmlns="http://www.w3.org/2000/svg" version="1.1">
<title>OpenSCAD Model</title>
<path d="
M -24.3445,-0 L -19.3455,-0 L -19.3455,2.00049 L -14.3445,2.00049 L -14.3445,-0 L -9.34547,-0
 L -9.34547,2.00049 L -4.34448,2.00049 L -4.34448,-0 L 0.65451,-0 L 0.65451,2.00049 L 5.6555,2.00049
 L 5.6555,-0 L 10.6545,-0 L 10.6545,2.00049 L 15.6555,2.00049 L 15.6555,-0 L 20.6545,-0
 L 20.6545,2.00049 L 25.6555,2.00049 L 25.6555,-0 L 33.655,-0 L 33.655,-7.9995 L 35.6555,-7.9995
 L 35.6555,-13.0005 L 33.655,-13.0005 L 33.655,-17.9995 L 35.6555,-17.9995 L 35.6555,-23.0005 L 33.655,-23.0005
 L 33.655,-27.9995 L 35.6555,-27.9995 L 35.6555,-33.0005 L 33.655,-33.0005 L 33.655,-37.9995 L 35.6555,-37.9995
 L 35.6555,-43.0005 L 33.655,-43.0005 L 33.655,-47.9995 L 35.6555,-47.9995 L 35.6555,-53.0005 L 33.655,-53.0005
 L 33.655,-57.9995 L 35.6555,-57.9995 L 35.6555,-63.0005 L 33.655,-63.0005 L 33.655,-67.31 L -33.655,-67.31
 L -33.655,-0 L -29.3455,-0 L -29.3455,2.00049 L -24.3445,2.00049 z
" stroke="black" fill="lightgray" stroke-width="0.5"/></svg>
