<?xml version="1.0" standalone="no"?>
<!DOCTYPE svg PUBLIC "-//W3C//DTD SVG 1.1//EN" "http://www.w3.org/Graphics/SVG/1.1/DTD/svg11.dtd">
<svg width="101" height="68" viewBox="-51 -68 101 68" xmlns="http://www.w3.org/2000/svg" version="1.1">
<title>OpenSCAD Model</title>
<path d="
M 44.436,-5 L 49.0366,-5 L 49.0366,-10 L 44.436,-10 L 44.436,-15 L 49.0366,-15
 L 49.0366,-20 L 44.436,-20 L 44.436,-25 L 49.0366,-25 L 49.0366,-30 L 44.436,-30
 L 44.436,-35 L 49.0366,-35 L 49.0366,-40 L 44.436,-40 L 44.436,-45 L 49.0366,-45
 L 49.0366,-50 L 44.436,-50 L 44.436,-55 L 49.0366,-55 L 49.0366,-60 L 44.436,-60
 L 44.436,-67.31 L -44.436,-67.31 L -44.436,-60 L -50.186,-60 L -50.186,-55 L -44.436,-55
 L -44.436,-50 L -50.186,-50 L -50.186,-45 L -44.436,-45 L -44.436,-40 L -50.186,-40
 L -50.186,-35 L -44.436,-35 L -44.436,-30 L -50.186,-30 L -50.186,-25 L -44.436,-25
 L -44.436,-20 L -50.186,-20 L -50.186,-15 L -44.436,-15 L -44.436,-10 L -50.186,-10
 L -50.186,-5 L -44.436,-5 L -44.436,-0 L 44.436,-0 z
" stroke="black" fill="lightgray" stroke-width="0.5"/></svg>
