<?xml version="1.0" standalone="no"?>
<!DOCTYPE svg PUBLIC "-//W3C//DTD SVG 1.1//EN" "http://www.w3.org/Graphics/SVG/1.1/DTD/svg11.dtd">
<svg width="82" height="108" viewBox="-41 -108 82 108" xmlns="http://www.w3.org/2000/svg" version="1.1">
<title>OpenSCAD Model</title>
<path d="
M 40.64,-2.49951 L 38.6395,-2.49951 L 38.6395,-7.5005 L 40.64,-7.5005 L 40.64,-12.4995 L 38.6395,-12.4995
 L 38.6395,-17.5005 L 40.64,-17.5005 L 40.64,-22.4995 L 38.6395,-22.4995 L 38.6395,-27.5005 L 40.64,-27.5005
 L 40.64,-32.4995 L 38.6395,-32.4995 L 38.6395,-37.5005 L 40.64,-37.5005 L 40.64,-42.4995 L 38.6395,-42.4995
 L 38.6395,-47.5005 L 40.64,-47.5005 L 40.64,-52.4995 L 38.6395,-52.4995 L 38.6395,-57.5005 L 40.64,-57.5005
 L 40.64,-62.4995 L 38.6395,-62.4995 L 38.6395,-67.5005 L 40.64,-67.5005 L 40.64,-72.4995 L 38.6395,-72.4995
 L 38.6395,-77.5005 L 40.64,-77.5005 L 40.64,-82.4995 L 38.6395,-82.4995 L 38.6395,-87.5005 L 40.64,-87.5005
 L 40.64,-92.4995 L 38.6395,-92.4995 L 38.6395,-97.5005 L 40.64,-97.5005 L 40.64,-107.09 L -40.64,-107.09
 L -40.64,-97.5005 L -38.6395,-97.5005 L -38.6395,-92.4995 L -40.64,-92.4995 L -40.64,-87.5005 L -38.6395,-87.5005
 L -38.6395,-82.4995 L -40.64,-82.4995 L -40.64,-77.5005 L -38.6395,-77.5005 L -38.6395,-72.4995 L -40.64,-72.4995
 L -40.64,-67.5005 L -38.6395,-67.5005 L -38.6395,-62.4995 L -40.64,-62.4995 L -40.64,-57.5005 L -38.6395,-57.5005
 L -38.6395,-52.4995 L -40.64,-52.4995 L -40.64,-47.5005 L -38.6395,-47.5005 L -38.6395,-42.4995 L -40.64,-42.4995
 L -40.64,-37.5005 L -38.6395,-37.5005 L -38.6395,-32.4995 L -40.64,-32.4995 L -40.64,-27.5005 L -38.6395,-27.5005
 L -38.6395,-22.4995 L -40.64,-22.4995 L -40.64,-17.5005 L -38.6395,-17.5005 L -38.6395,-12.4995 L -40.64,-12.4995
 L -40.64,-7.5005 L -38.6395,-7.5005 L -38.6395,-2.49951 L -40.64,-2.49951 L -40.64,-0 L 40.64,-0
 z
" stroke="black" fill="lightgray" stroke-width="0.5"/></svg>
