<?xml version="1.0" standalone="no"?>
<!DOCTYPE svg PUBLIC "-//W3C//DTD SVG 1.1//EN" "http://www.w3.org/Graphics/SVG/1.1/DTD/svg11.dtd">
<svg width="151" height="208" viewBox="-36 -208 151 208" xmlns="http://www.w3.org/2000/svg" version="1.1">
<title>OpenSCAD Model</title>
<path d="
M 35.655,-2.5 L 33.655,-2.5 L 33.655,-7.5 L 35.655,-7.5 L 35.655,-12.5 L 33.655,-12.5
 L 33.655,-17.5 L 35.655,-17.5 L 35.655,-22.5 L 33.655,-22.5 L 33.655,-27.5 L 35.655,-27.5
 L 35.655,-32.5 L 33.655,-32.5 L 33.655,-37.5 L 35.655,-37.5 L 35.655,-42.5 L 33.655,-42.5
 L 33.655,-47.5 L 35.655,-47.5 L 35.655,-52.5 L 33.655,-52.5 L 33.655,-57.5 L 35.655,-57.5
 L 35.655,-62.5 L 33.655,-62.5 L 33.655,-67.5 L 35.655,-67.5 L 35.655,-72.5 L 33.655,-72.5
 L 33.655,-77.5 L 35.655,-77.5 L 35.655,-82.5 L 33.655,-82.5 L 33.655,-87.5 L 35.655,-87.5
 L 35.655,-92.5 L 33.655,-92.5 L 33.655,-97.5 L 35.655,-97.5 L 35.655,-100 L 114.935,-100
 L 114.935,-102.5 L 112.935,-102.5 L 112.935,-107.501 L 114.935,-107.501 L 114.935,-112.5 L 112.935,-112.5
 L 112.935,-117.501 L 114.935,-117.501 L 114.935,-122.5 L 112.935,-122.5 L 112.935,-127.501 L 114.935,-127.501
 L 114.935,-132.5 L 112.935,-132.5 L 112.935,-137.501 L 114.935,-137.501 L 114.935,-142.5 L 112.935,-142.5
 L 112.935,-147.501 L 114.935,-147.501 L 114.935,-152.5 L 112.935,-152.5 L 112.935,-157.5 L 114.935,-157.5
 L 114.935,-162.499 L 112.935,-162.499 L 112.935,-167.5 L 114.935,-167.5 L 114.935,-172.499 L 112.935,-172.499
 L 112.935,-177.5 L 114.935,-177.5 L 114.935,-182.499 L 112.935,-182.499 L 112.935,-187.5 L 114.935,-187.5
 L 114.935,-192.499 L 112.935,-192.499 L 112.935,-197.5 L 114.935,-197.5 L 114.935,-207.09 L 33.655,-207.09
 L 33.655,-197.5 L 35.655,-197.5 L 35.655,-192.5 L 33.655,-192.5 L 33.655,-187.5 L 35.655,-187.5
 L 35.655,-182.5 L 33.655,-182.5 L 33.655,-177.5 L 35.655,-177.5 L 35.655,-172.5 L 33.655,-172.5
 L 33.655,-167.5 L 35.655,-167.5 L 35.655,-162.5 L 33.655,-162.5 L 33.655,-157.5 L 35.655,-157.5
 L 35.655,-152.5 L 33.655,-152.5 L 33.655,-156.29 L -33.655,-156.29 L -33.655,-147.5 L -35.6555,-147.5
 L -35.6555,-142.499 L -33.655,-142.499 L -33.655,-137.5 L -35.6555,-137.5 L -35.6555,-132.499 L -33.655,-132.499
 L -33.655,-127.5 L -35.6555,-127.5 L -35.6555,-122.499 L -33.655,-122.499 L -33.655,-117.5 L -35.6555,-117.5
 L -35.6555,-112.499 L -33.655,-112.499 L -33.655,-107.5 L -35.6555,-107.5 L -35.6555,-102.499 L -33.655,-102.499
 L -33.655,-97.5005 L -35.6555,-97.5005 L -35.6555,-92.4995 L -33.655,-92.4995 L -33.655,-87.5005 L -35.6555,-87.5005
 L -35.6555,-82.4995 L -33.655,-82.4995 L -33.655,-77.5005 L -35.6555,-77.5005 L -35.6555,-72.4995 L -33.655,-72.4995
 L -33.655,-67.5005 L -35.6555,-67.5005 L -35.6555,-62.4995 L -33.655,-62.4995 L -33.655,-57.5005 L -35.6555,-57.5005
 L -35.6555,-52.4995 L -33.655,-52.4995 L -33.655,-47.5005 L -35.6555,-47.5005 L -35.6555,-42.4995 L -33.655,-42.4995
 L -33.655,-37.5005 L -35.6555,-37.5005 L -35.6555,-32.4995 L -33.655,-32.4995 L -33.655,-27.5005 L -35.6555,-27.5005
 L -35.6555,-22.4995 L -33.655,-22.4995 L -33.655,-17.5005 L -35.6555,-17.5005 L -35.6555,-12.4995 L -33.655,-12.4995
 L -33.655,-7.5005 L -35.6555,-7.5005 L -35.6555,-2.4995 L -33.655,-2.4995 L -33.655,-0 L 35.655,-0
 z
M 33.655,-142.5 L 33.655,-147.5 L 35.655,-147.5 L 35.655,-142.5 z
M 33.655,-132.5 L 33.655,-137.5 L 35.655,-137.5 L 35.655,-132.5 z
M 33.655,-122.5 L 33.655,-127.5 L 35.655,-127.5 L 35.655,-122.5 z
M 33.655,-112.5 L 33.655,-117.5 L 35.655,-117.5 L 35.655,-112.5 z
M 33.655,-102.5 L 33.655,-107.5 L 35.655,-107.5 L 35.655,-102.5 z
" stroke="black" fill="lightgray" stroke-width="0.5"/></svg>
