<?xml version="1.0" standalone="no"?>
<!DOCTYPE svg PUBLIC "-//W3C//DTD SVG 1.1//EN" "http://www.w3.org/Graphics/SVG/1.1/DTD/svg11.dtd">
<svg width="151" height="208" viewBox="-41 -208 151 208" xmlns="http://www.w3.org/2000/svg" version="1.1">
<title>OpenSCAD Model</title>
<path d="
M 109.95,-2.49951 L 107.95,-2.49951 L 107.95,-7.5005 L 109.95,-7.5005 L 109.95,-12.4995 L 107.95,-12.4995
 L 107.95,-17.5005 L 109.95,-17.5005 L 109.95,-22.4995 L 107.95,-22.4995 L 107.95,-27.5005 L 109.95,-27.5005
 L 109.95,-32.4995 L 107.95,-32.4995 L 107.95,-37.5005 L 109.95,-37.5005 L 109.95,-42.4995 L 107.95,-42.4995
 L 107.95,-47.5005 L 109.95,-47.5005 L 109.95,-52.4995 L 107.95,-52.4995 L 107.95,-57.5005 L 109.95,-57.5005
 L 109.95,-62.4995 L 107.95,-62.4995 L 107.95,-67.5005 L 109.95,-67.5005 L 109.95,-72.4995 L 107.95,-72.4995
 L 107.95,-77.5005 L 109.95,-77.5005 L 109.95,-82.4995 L 107.95,-82.4995 L 107.95,-87.5005 L 109.95,-87.5005
 L 109.95,-92.4995 L 107.95,-92.4995 L 107.95,-97.5005 L 109.95,-97.5005 L 109.95,-102.5 L 107.95,-102.5
 L 107.95,-107.5 L 109.95,-107.5 L 109.95,-112.499 L 107.95,-112.499 L 107.95,-117.5 L 109.95,-117.5
 L 109.95,-122.499 L 107.95,-122.499 L 107.95,-127.5 L 109.95,-127.5 L 109.95,-132.499 L 107.95,-132.499
 L 107.95,-137.5 L 109.95,-137.5 L 109.95,-142.499 L 107.95,-142.499 L 107.95,-147.5 L 109.95,-147.5
 L 109.95,-152.499 L 107.95,-152.499 L 107.95,-156.29 L 40.6405,-156.29 L 40.6405,-152.499 L 38.6395,-152.499
 L 38.6395,-157.5 L 40.64,-157.5 L 40.64,-162.499 L 38.6395,-162.499 L 38.6395,-167.5 L 40.64,-167.5
 L 40.64,-172.499 L 38.6395,-172.499 L 38.6395,-177.5 L 40.64,-177.5 L 40.64,-182.499 L 38.6395,-182.499
 L 38.6395,-187.5 L 40.64,-187.5 L 40.64,-192.499 L 38.6395,-192.499 L 38.6395,-197.5 L 40.64,-197.5
 L 40.64,-207.09 L -40.64,-207.09 L -40.64,-197.5 L -38.6395,-197.5 L -38.6395,-192.499 L -40.64,-192.499
 L -40.64,-187.5 L -38.6395,-187.5 L -38.6395,-182.499 L -40.64,-182.499 L -40.64,-177.5 L -38.6395,-177.5
 L -38.6395,-172.499 L -40.64,-172.499 L -40.64,-167.5 L -38.6395,-167.5 L -38.6395,-162.499 L -40.64,-162.499
 L -40.64,-157.5 L -38.6395,-157.5 L -38.6395,-152.499 L -40.64,-152.499 L -40.64,-147.5 L -38.6395,-147.5
 L -38.6395,-142.499 L -40.64,-142.499 L -40.64,-137.5 L -38.6395,-137.5 L -38.6395,-132.499 L -40.64,-132.499
 L -40.64,-127.5 L -38.6395,-127.5 L -38.6395,-122.499 L -40.64,-122.499 L -40.64,-117.5 L -38.6395,-117.5
 L -38.6395,-112.499 L -40.64,-112.499 L -40.64,-107.5 L -38.6395,-107.5 L -38.6395,-102.499 L -40.64,-102.499
 L -40.64,-101.6 L -39.9626,-101.6 L 40.64,-54 L 40.6405,-52.4995 L 38.64,-52.4995 L 38.64,-47.5005
 L 40.6405,-47.5005 L 40.6405,-42.4995 L 38.64,-42.4995 L 38.64,-37.5005 L 40.6405,-37.5005 L 40.6405,-32.4995
 L 38.64,-32.4995 L 38.64,-27.5005 L 40.6405,-27.5005 L 40.6405,-22.4995 L 38.64,-22.4995 L 38.64,-17.5005
 L 40.6405,-17.5005 L 40.6405,-12.4995 L 38.64,-12.4995 L 38.64,-7.5005 L 40.6405,-7.5005 L 40.6405,-2.49951
 L 38.64,-2.49951 L 38.64,-0 L 109.95,-0 z
" stroke="black" fill="lightgray" stroke-width="0.5"/></svg>
