<?xml version="1.0" standalone="no"?>
<!DOCTYPE svg PUBLIC "-//W3C//DTD SVG 1.1//EN" "http://www.w3.org/Graphics/SVG/1.1/DTD/svg11.dtd">
<svg width="220" height="273" viewBox="-110 -280 220 273" xmlns="http://www.w3.org/2000/svg" version="1.1">
<title>OpenSCAD Model</title>
<path d="
M 109.95,-184.81 L 109.95,-189.81 L 107.95,-189.81 L 107.95,-194.81 L 109.95,-194.81 L 109.95,-199.81
 L 107.95,-199.81 L 107.95,-204.81 L 109.95,-204.81 L 109.95,-209.81 L 107.95,-209.81 L 107.95,-214.81
 L 109.95,-214.81 L 109.95,-219.81 L 107.95,-219.81 L 107.95,-224.81 L 109.95,-224.81 L 109.95,-229.81
 L 107.95,-229.81 L 107.95,-234.81 L 109.95,-234.81 L 109.95,-239.81 L 107.95,-239.81 L 107.95,-244.81
 L 109.95,-244.81 L 109.95,-249.81 L 107.95,-249.81 L 107.95,-254.81 L 109.95,-254.81 L 109.95,-259.81
 L 107.95,-259.81 L 107.95,-264.81 L 109.95,-264.81 L 109.95,-269.81 L 107.95,-269.81 L 107.95,-279.4
 L 38.64,-279.4 L 38.64,-234.95 L -38.64,-234.95 L -38.64,-279.4 L -107.95,-279.4 L -107.95,-269.81
 L -109.95,-269.81 L -109.95,-264.81 L -107.95,-264.81 L -107.95,-259.81 L -109.95,-259.81 L -109.95,-254.81
 L -107.95,-254.81 L -107.95,-249.81 L -109.95,-249.81 L -109.95,-244.81 L -107.95,-244.81 L -107.95,-239.81
 L -109.95,-239.81 L -109.95,-234.81 L -107.95,-234.81 L -107.95,-229.81 L -109.95,-229.81 L -109.95,-224.81
 L -107.95,-224.81 L -107.95,-219.81 L -109.95,-219.81 L -109.95,-214.81 L -107.95,-214.81 L -107.95,-209.81
 L -109.95,-209.81 L -109.95,-204.81 L -107.95,-204.81 L -107.95,-199.81 L -109.95,-199.81 L -109.95,-194.81
 L -107.95,-194.81 L -107.95,-189.81 L -109.95,-189.81 L -109.95,-184.81 L -107.95,-184.81 L -107.95,-179.81
 L -109.95,-179.81 L -109.95,-174.81 L -107.95,-174.81 L -107.95,-72.31 L -102.95,-72.31 L -102.95,-67.3095
 L -97.95,-67.3095 L -97.95,-72.31 L -92.95,-72.31 L -92.95,-67.3095 L -87.95,-67.3095 L -87.95,-72.31
 L -82.95,-72.31 L -82.95,-67.3095 L -77.95,-67.3095 L -77.95,-72.31 L -72.95,-72.31 L -72.95,-67.3095
 L -67.95,-67.3095 L -67.95,-72.31 L -62.95,-72.31 L -62.95,-67.3095 L -57.95,-67.3095 L -57.95,-72.31
 L -52.95,-72.31 L -52.95,-67.3095 L -47.95,-67.3095 L -47.95,-72.31 L -40.64,-72.31 L -40.64,-119.461
 L -38.64,-119.461 L -38.64,-7 L 38.64,-7 L 38.64,-119.461 L 40.64,-119.461 L 40.64,-72.31
 L 47.95,-72.31 L 47.95,-67.3095 L 52.95,-67.3095 L 52.95,-72.31 L 57.95,-72.31 L 57.95,-67.3095
 L 62.95,-67.3095 L 62.95,-72.31 L 67.95,-72.31 L 67.95,-67.3095 L 72.95,-67.3095 L 72.95,-72.31
 L 77.95,-72.31 L 77.95,-67.3095 L 82.95,-67.3095 L 82.95,-72.31 L 87.95,-72.31 L 87.95,-67.3095
 L 92.95,-67.3095 L 92.95,-72.31 L 97.95,-72.31 L 97.95,-67.3095 L 102.95,-67.3095 L 102.95,-72.31
 L 107.95,-72.31 L 107.95,-174.81 L 109.95,-174.81 L 109.95,-179.81 L 107.95,-179.81 L 107.95,-184.81
 z
M 78.6395,-226.1 L 78.6395,-231.1 L 83.6405,-231.1 L 83.6405,-226.1 z
M -103.64,-226.1 L -103.64,-231.1 L -98.6395,-231.1 L -98.6395,-226.1 z
M 48.6395,-226.1 L 48.6395,-231.1 L 53.6405,-231.1 L 53.6405,-226.1 z
M -93.6405,-226.1 L -93.6405,-231.1 L -88.6395,-231.1 L -88.6395,-226.1 z
M -83.6405,-226.1 L -83.6405,-231.1 L -78.6395,-231.1 L -78.6395,-226.1 z
M -73.6405,-226.1 L -73.6405,-231.1 L -68.6395,-231.1 L -68.6395,-226.1 z
M -63.6405,-226.1 L -63.6405,-231.1 L -58.6395,-231.1 L -58.6395,-226.1 z
M -53.6405,-226.1 L -53.6405,-231.1 L -48.6395,-231.1 L -48.6395,-226.1 z
M 88.6395,-226.1 L 88.6395,-231.1 L 93.6405,-231.1 L 93.6405,-226.1 z
M 68.6395,-226.1 L 68.6395,-231.1 L 73.6405,-231.1 L 73.6405,-226.1 z
M 58.6395,-226.1 L 58.6395,-231.1 L 63.6405,-231.1 L 63.6405,-226.1 z
M 98.6395,-226.1 L 98.6395,-231.1 L 103.64,-231.1 L 103.64,-226.1 z
M -72.9505,-168.909 L -72.9505,-173.91 L -67.9495,-173.91 L -67.9495,-168.909 z
M -102.95,-168.909 L -102.95,-173.91 L -97.9495,-173.91 L -97.9495,-168.909 z
M -92.9505,-168.909 L -92.9505,-173.91 L -87.9495,-173.91 L -87.9495,-168.909 z
M -82.9505,-168.909 L -82.9505,-173.91 L -77.9495,-173.91 L -77.9495,-168.909 z
M -62.9505,-168.909 L -62.9505,-173.91 L -57.9495,-173.91 L -57.9495,-168.909 z
M -52.9505,-168.909 L -52.9505,-173.91 L -47.9495,-173.91 L -47.9495,-168.909 z
M 45.64,-77.31 L 45.64,-120.399 L 96.9912,-77.31 z
M -96.9912,-77.31 L -45.64,-120.399 L -45.64,-77.31 z
M 18.7957,-46.758 L 18.2911,-46.8217 L 17.7985,-46.9482 L 17.3256,-47.1355 L 16.8799,-47.3805 L 16.4684,-47.6794
 L 16.0977,-48.0276 L 15.7735,-48.4195 L 15.5009,-48.8489 L 15.2844,-49.3091 L 15.1272,-49.7928 L 15.0319,-50.2924
 L 15,-50.8 L 15.0319,-51.3076 L 15.1272,-51.8072 L 15.2844,-52.2909 L 15.5009,-52.7511 L 15.7735,-53.1805
 L 16.0977,-53.5724 L 16.4684,-53.9206 L 16.8799,-54.2195 L 17.3256,-54.4645 L 17.7985,-54.6518 L 18.2911,-54.7782
 L 18.7957,-54.842 L 19.3043,-54.842 L 19.8089,-54.7782 L 20.3015,-54.6518 L 20.7744,-54.4645 L 21.2201,-54.2195
 L 21.6315,-53.9206 L 22.0023,-53.5724 L 22.3265,-53.1805 L 22.599,-52.7511 L 22.8156,-52.2909 L 22.9727,-51.8072
 L 23.068,-51.3076 L 23.1,-50.8 L 23.068,-50.2924 L 22.9727,-49.7928 L 22.8156,-49.3091 L 22.599,-48.8489
 L 22.3265,-48.4195 L 22.0023,-48.0276 L 21.6315,-47.6794 L 21.2201,-47.3805 L 20.7744,-47.1355 L 20.3015,-46.9482
 L 19.8089,-46.8217 L 19.3043,-46.758 z
M 8.96837,-49.5026 L 8.8064,-49.523 L 8.64827,-49.5636 L 8.49648,-49.6237 L 8.35342,-49.7024 L 8.22134,-49.7983
 L 8.10234,-49.9101 L 7.99828,-50.0359 L 7.9108,-50.1737 L 7.84129,-50.3214 L 7.79083,-50.4767 L 7.76025,-50.6371
 L 7.75,-50.8 L 7.76025,-50.9629 L 7.79083,-51.1233 L 7.84129,-51.2785 L 7.9108,-51.4263 L 7.99828,-51.5641
 L 8.10234,-51.6899 L 8.22134,-51.8017 L 8.35342,-51.8976 L 8.49648,-51.9763 L 8.64827,-52.0363 L 8.8064,-52.077
 L 8.96837,-52.0974 L 9.13162,-52.0974 L 9.29359,-52.077 L 9.45172,-52.0363 L 9.60352,-51.9763 L 9.74657,-51.8976
 L 9.87865,-51.8017 L 9.99765,-51.6899 L 10.1017,-51.5641 L 10.1892,-51.4263 L 10.2587,-51.2785 L 10.3092,-51.1233
 L 10.3397,-50.9629 L 10.35,-50.8 L 10.3397,-50.6371 L 10.3092,-50.4767 L 10.2587,-50.3214 L 10.1892,-50.1737
 L 10.1017,-50.0359 L 9.99765,-49.9101 L 9.87865,-49.7983 L 9.74657,-49.7024 L 9.60352,-49.6237 L 9.45172,-49.5636
 L 9.29359,-49.523 L 9.13162,-49.5026 z
" stroke="black" fill="lightgray" stroke-width="0.5"/></svg>
